<svg width="200" height="72" viewBox="0 0 200 72" fill="none" xmlns="http://www.w3.org/2000/svg">
<path fill-rule="evenodd" clip-rule="evenodd" d="M49.9084 49.0288V14.6016H68.1067V18.9175H53.6768V29.5021H66.636V33.8191H53.6768V44.6095H69.1179V48.9254H49.9084V49.0288ZM88.2352 49.0288L81.9849 39.8833L75.7346 49.0288H71.3245L79.8715 36.7995L70.8639 24.1586H75.8278L81.9849 33.6146L88.2352 24.1586H93.1059L84.559 36.7995L92.6474 49.0288H88.2352ZM98.7135 45.329V62.2857H94.9451V36.9018C94.9451 30.4273 99.3562 23.5426 106.25 23.5426C113.234 23.5426 118.474 28.4757 118.474 36.5937C118.474 44.5072 113.143 49.9541 107.077 49.9541C104.136 49.9541 100.184 48.5151 98.7135 45.329ZM114.522 36.5937C114.522 31.0446 111.305 27.7574 105.607 28.0642C102.849 28.1677 98.6225 30.4273 98.9888 38.342C99.0809 40.9108 101.471 45.7393 106.71 45.7393C111.213 45.7393 114.522 42.8624 114.522 36.5937ZM121.691 49.0288V24.1586H125.46V26.8309C127.298 24.4667 130.146 23.6449 133.18 23.6449V28.1677C132.72 28.0642 128.216 27.447 125.46 34.0249V49.1323H121.691V49.0288ZM134.191 36.5949C134.191 29.3998 138.786 23.5426 145.128 23.5426C153.033 23.5426 155.973 29.401 155.973 36.9018V38.958H138.327C138.602 43.6854 142.371 46.1508 145.864 46.0485C148.437 45.9462 150.184 45.1244 152.023 43.0693L154.504 45.9474C152.206 48.4128 149.265 50.0564 145.68 50.0564C138.971 49.9541 134.191 44.4049 134.191 36.5949ZM144.852 27.7574C141.268 27.7574 138.511 31.2491 138.327 35.0536H152.022C152.022 31.3526 149.633 27.7574 144.852 27.7574ZM157.905 45.5347L160.661 42.7601C160.57 42.7601 162.041 44.4049 162.225 44.5072C162.868 45.1244 163.51 45.5347 164.338 45.7405C166.727 46.46 171.047 46.2542 171.416 42.5544C171.599 40.4993 170.22 39.3683 168.658 38.6488C166.636 37.8282 164.429 37.519 162.408 36.4915C160.109 35.3616 158.641 33.4088 158.641 30.532C158.641 23.0276 168.198 21.7955 172.518 25.2896C172.702 25.4954 174.816 27.6527 174.724 27.6527L171.966 30.1205C170.589 28.27 169.301 27.3447 166.361 27.3447C164.89 27.3447 162.868 28.0642 162.5 29.8113C161.948 32.2778 164.429 33.2031 166.084 33.7169C168.291 34.3329 170.68 34.7444 172.61 36.08C175.276 37.9305 175.92 41.9372 174.908 45.021C173.804 48.4128 170.495 49.7483 167.555 49.8494C164.063 50.0564 161.029 48.8231 158.547 46.0497C158.363 46.0497 157.905 45.5347 157.905 45.5347ZM177.297 45.5347L180.056 42.7601C179.964 42.7601 181.433 44.4049 181.617 44.5072C182.26 45.1244 182.905 45.5347 183.731 45.7405C186.12 46.46 190.442 46.2542 190.809 42.5544C190.991 40.4993 189.614 39.3683 188.051 38.6488C186.029 37.8282 183.823 37.519 181.802 36.4915C179.504 35.3616 178.033 33.4088 178.033 30.532C178.033 23.0276 187.593 21.7955 191.912 25.2896C192.096 25.4954 194.209 27.6527 194.118 27.6527L191.361 30.1205C189.981 28.27 188.694 27.3447 185.753 27.3447C184.283 27.3447 182.261 28.0642 181.893 29.8113C181.342 32.2778 183.823 33.2031 185.477 33.7169C187.684 34.3329 190.074 34.7444 192.004 36.08C194.669 37.9305 195.314 41.9372 194.301 45.021C193.198 48.4128 189.89 49.7483 186.948 49.8494C183.456 50.0564 180.423 48.8231 177.941 46.0497C177.757 46.0497 177.298 45.5347 177.298 45.5347H177.297ZM195.22 24.1586V21.4863H194.393V20.9726H196.599V21.4863H195.772V24.1586H195.22ZM199.356 24.1586V21.6933L198.529 24.1586H198.345L197.518 21.6933V24.1586H197.059V20.9726H197.794L198.529 23.1323L199.265 20.9726H200V24.1586H199.356ZM24.3565 49.0288L21.5993 40.8073H6.70987L3.95158 49.0288H0L11.949 14.6016H16.268L28.126 49.0288H24.3565ZM13.9703 19.5347L8.36484 36.5949H20.0364L13.9703 19.5347ZM30.6068 49.0288H34.4674V14.6028H30.6068V49.0288ZM40.2571 49.0288H44.1176V24.6736H40.2571V49.0288ZM47.7939 16.7601V16.3486C44.8535 16.2464 42.4626 13.5741 42.3716 10.2857H41.8199C41.7278 13.5741 39.338 16.2464 36.3976 16.3486V16.7601C39.338 16.8624 41.7278 19.5347 41.8199 22.8231H42.3716C42.4626 19.5347 44.8535 16.8624 47.7939 16.7601Z" fill="black"/>
</svg>
