<svg width="200" height="72" viewBox="0 0 200 72" fill="none" xmlns="http://www.w3.org/2000/svg">
<g clip-path="url(#clip0_941_397)">
<path fill-rule="evenodd" clip-rule="evenodd" d="M103.04 61.7957C110.027 61.7957 114.683 54.5459 114.683 42.3122V11.0145H107.04V41.8203C107.04 47.5167 105.761 50.3377 103.081 50.3377C100.494 50.3377 99.3866 47.4498 99.3866 41.8203V11.0145H91.7031V42.3122C91.7132 54.8171 95.9673 61.7957 103.038 61.7957H103.04ZM126.029 34.0822H124.625V22.2011H126.642C130.029 22.2011 131.655 23.892 131.655 28.0332C131.644 32.5288 129.807 34.0822 126.029 34.0822ZM135.159 13.7524C133.048 11.3689 130.546 11.0145 127.253 11.0145H116.889V61.018H124.529V44.9144H126.726C129.976 44.9144 132.436 44.5582 134.421 42.6666C137.534 39.643 139.381 34.3028 139.381 27.8288C139.381 21.5592 137.936 16.8447 135.159 13.7524ZM181.644 33.169L193.286 61.0199H200V11.0145H192.369V38.7967L180.895 11.0145H174.002V61.0199H181.644V33.169ZM73.6964 49.5601C69.3894 49.5601 65.4834 43.5111 65.4834 35.6356C65.4834 28.3189 69.1257 22.4905 73.791 22.4905C78.1826 22.4905 81.8351 28.3189 81.8351 35.6374C81.8238 43.7824 78.1826 49.562 73.6964 49.562V49.5601ZM84.895 17.4867C81.8655 12.7053 77.9178 10.1031 73.7381 10.1031C69.3049 10.1031 65.4316 12.5697 62.3593 17.4198C59.2881 22.2681 57.6095 28.6064 57.6095 35.5C57.6095 42.8854 59.109 49.0701 62.0438 54.0739C65.1139 59.2784 69.0728 61.9476 73.6851 61.9476C78.0339 61.9476 82.1618 59.2115 85.1901 54.1426C88.1362 49.2907 89.7191 42.8854 89.7191 35.7224C89.7304 28.8759 88.0619 22.4724 84.895 17.4867ZM156.47 49.5601C152.164 49.5601 148.258 43.5111 148.258 35.6356C148.258 28.3189 151.91 22.4905 156.565 22.4905C160.956 22.4905 164.609 28.3189 164.609 35.6374C164.597 43.7824 160.946 49.562 156.47 49.562V49.5601ZM167.668 17.4867C164.64 12.7053 160.681 10.1031 156.513 10.1031C152.068 10.1031 148.206 12.5697 145.134 17.4198C142.062 22.2681 140.384 28.6064 140.384 35.5C140.384 42.8854 141.882 49.0701 144.816 54.0739C147.9 59.2784 151.846 61.9476 156.46 61.9476C160.808 61.9476 164.935 59.2115 167.965 54.1426C170.91 49.2907 172.494 42.8854 172.494 35.7224C172.505 28.8759 170.834 22.4724 167.668 17.4867ZM4.42202 54.0558C7.49318 59.2603 11.4104 62 16.0228 62C21.3415 62 26.3459 57.7738 29.3326 50.8115C31.1374 46.5854 32.0139 41.804 32.0139 36.1781C32.0139 35.1293 31.9711 33.9972 31.9294 32.8634H14.1334V42.8511H23.0528C21.5105 47.2129 18.9249 49.6108 16.0228 49.6108C11.7157 49.6108 7.85256 43.4948 7.85256 35.5343C7.85256 28.3533 11.4521 22.3874 16.0228 22.3874C18.4822 22.3874 20.4977 24.0113 22.44 27.2393H31.1374C28.6363 16.5409 22.7892 10 16.1174 10C11.6842 10 7.81989 12.5353 4.7386 17.3854C1.66745 22.2373 6.34854e-05 28.5739 6.34854e-05 35.4674C-0.0112027 42.8691 1.47705 49.0538 4.42202 54.0576V54.0558ZM43.0762 34.0822H41.5868V22.2011H43.6981C47.0756 22.2011 48.7013 23.892 48.7013 28.0332C48.7013 32.5288 46.8537 34.0822 43.0762 34.0822ZM49.3559 43.8493C53.7891 41.8727 56.4288 35.8382 56.4288 27.7456C56.4288 21.561 54.9811 16.8447 52.2062 13.7524C50.095 11.3689 47.5939 11.0145 44.2997 11.0145H33.9348V61.018H41.5766V44.9144L47.5511 61.018H56.9977L49.3559 43.8493Z" fill="black"/>
</g>
<defs>
<clipPath id="clip0_941_397">
<rect width="200" height="72" fill="white"/>
</clipPath>
</defs>
</svg>
