<svg width="200" height="72" viewBox="0 0 200 72" fill="none" xmlns="http://www.w3.org/2000/svg">
<path fill-rule="evenodd" clip-rule="evenodd" d="M82.6548 33.7798C80.1624 32.3986 77.5432 31.5798 74.9878 30.4643C73.9417 30.0075 72.9076 29.4684 71.8885 28.8811C70.6837 28.1866 69.8063 26.9405 69.8173 24.8135C69.8283 22.5451 70.4791 20.6776 71.8116 19.6475C73.2959 18.4994 74.904 18.6314 76.511 18.894C79.2211 19.3399 80.3949 21.9019 80.913 24.784C80.9919 25.2237 81.0807 25.6588 81.1586 26.0674H87.4011C87.7385 21.268 85.9298 16.7655 83.4254 14.1724C81.9062 12.5985 80.2033 11.8124 78.3916 11.3028C75.3282 10.4405 72.3796 10.6999 69.4679 12.4214C65.8934 14.536 62.9299 19.5419 63.3162 26.7386C63.4729 29.6595 64.2564 32.0071 65.5301 34.0222C67.0873 36.4832 69.1245 37.6283 71.1748 38.6024C73.2849 39.6076 75.467 40.254 77.5711 41.2872C78.719 41.8496 79.8849 42.6497 80.8421 43.7606C82.5909 45.7897 82.531 49.3772 80.8601 51.5725C80.0636 52.6197 79.1432 53.2443 78.1031 53.4789C76.6558 53.8036 75.2464 54.0164 73.7611 53.5395C71.2696 52.7378 69.2154 50.3637 68.8201 46.5495C68.7632 45.9948 68.6624 44.9259 68.6624 44.9259C66.5522 44.9259 64.2035 44.9103 62.2002 44.9103C62.2002 44.9103 62.2451 46.1595 62.2621 46.4749C62.6124 52.7952 64.8613 57.0197 68.4418 59.619C70.3643 61.0126 72.4405 61.5704 74.5776 61.6667C77.5711 61.8019 80.4698 61.4181 83.2378 59.3782C87.6747 56.1061 89.5742 48.5724 88.0999 41.8247C87.2055 37.7293 85.1622 35.1688 82.6548 33.7798Z" fill="black"/>
<path fill-rule="evenodd" clip-rule="evenodd" d="M53.0193 40.1163C52.644 45.1331 51.3394 49.4663 48.3818 52.193C46.8057 53.6472 45.0729 53.7234 43.339 53.6006C39.1547 53.2992 36.5674 48.0944 35.7879 42.6627C35.6621 41.7865 35.4894 40.9133 35.4435 40.0246C35.3836 38.8671 35.3297 37.7221 35.3297 36.5568C35.2998 33.1978 35.6302 29.9956 36.5475 26.9644C38.2064 21.4784 41.1071 19.0422 44.9361 19.3281C48.81 19.6171 51.3883 24.0917 52.3635 28.6766C53.1661 32.4551 53.3058 36.2865 53.0193 40.1163ZM56.6078 21.1708C53.6592 14.42 49.4598 11.3469 43.4359 11.3391C41.7539 11.1589 39.3923 12.0724 37.1544 13.7597C34.624 15.6692 32.7634 18.7097 31.339 22.4261C29.6721 26.7795 29.0821 31.6161 29.0372 36.563C29.0053 39.978 29.3437 43.393 30.1392 46.665C30.9587 50.0365 32.0996 53.0662 33.7855 55.5318C35.7909 58.4652 38.1875 60.2255 40.8935 61.0583C45.003 62.3229 48.9039 61.5337 52.4923 58.1342C55.7953 55.0036 57.7587 50.2571 58.7478 44.5272C59.4516 40.4472 59.5654 36.3082 59.1801 32.1009C58.8177 28.1514 58.0431 24.4583 56.6078 21.1708Z" fill="black"/>
<path fill-rule="evenodd" clip-rule="evenodd" d="M98.9527 52.0009V39.3586H112.028V31.7052H98.9527V20.6182C104.282 20.5607 109.791 20.6384 115.223 20.5747V12.1087H92.5095V60.5445H115.264L115.23 52.0009H98.9527Z" fill="black"/>
<path fill-rule="evenodd" clip-rule="evenodd" d="M16.0856 12.083C11.0398 11.8702 5.98904 11.9898 0.940275 11.9805H0V20.2072H1.32058C5.58478 20.2072 9.84999 20.173 14.1142 20.2367C14.8748 20.2476 15.7023 20.4294 16.38 20.9235C18.6519 22.5828 19.3606 26.5975 18.4243 29.8167C17.6288 32.5558 16.1065 33.805 14.1212 33.7801C9.82303 33.7227 5.52389 33.7584 1.22575 33.7662H0V60.7426H6.19167C6.19167 60.7426 6.18967 59.3862 6.19067 58.7694C6.20165 53.7915 6.14375 48.8011 6.19167 43.8231C6.19167 43.8231 6.18468 41.2269 6.19167 41.6417C6.19167 41.6417 6.67478 41.6433 6.80255 41.6417C8.48447 41.6262 11.1786 41.6184 13.0372 41.6153C14.0074 45.5368 15.3509 51.0119 16.2882 54.7687C16.7893 56.7761 17.3702 58.8829 17.8464 60.7426H24.0021C22.408 54.3026 20.7241 47.5069 19.0891 40.9006C19.6401 40.4097 19.8617 40.2683 20.203 39.9731C22.1465 38.292 23.48 35.7207 24.3455 32.5403C25.5872 27.9849 25.3766 23.5476 23.7655 19.3014C22.0457 14.7694 19.4404 12.2244 16.0856 12.083Z" fill="black"/>
<path fill-rule="evenodd" clip-rule="evenodd" d="M135.673 34.9877C135.342 34.9877 134.602 35.011 134.602 35.011V39.3411H144.961C144.845 43.9912 144.028 47.9298 142.215 51.3075C140.16 55.1342 137.575 57.5502 134.333 57.8112C133.032 57.9153 131.687 57.6418 130.403 57.2301C127.195 56.2031 124.982 53.0165 123.329 48.7999C122.28 46.1213 121.806 43.174 121.846 40.0309C121.901 35.7102 121.52 31.3645 122.37 27.0997C123.803 19.9249 127.341 14.9655 131.986 14.1203C136.116 13.3699 139.707 15.5823 142.355 20.7872C143.066 22.1855 143.632 23.7578 144.297 25.327H146.892C146.782 24.6791 146.749 24.3155 146.661 23.9862C146.013 21.5842 145.198 19.336 144.061 17.4048C141.373 12.837 138.137 10.0528 134.059 10.0388C133.342 10.0357 132.617 9.93785 131.911 10.0652C130.935 10.2408 129.926 10.3869 129.016 10.9042C125.859 12.6987 123.269 15.6942 121.515 20.2309C120.33 23.2932 119.37 26.4922 119.328 30.1729C119.295 32.9788 119.196 35.7847 119.221 38.5876C119.25 41.8146 119.379 45.0291 120.276 48.0417C122.562 55.7153 126.154 60.7849 131.72 61.8119C134.656 62.3526 137.527 61.7715 140.136 59.4969C143.401 56.6506 145.706 52.4821 146.907 46.8966C147.59 43.724 147.651 40.4629 147.625 37.1753C147.625 36.3565 147.632 35.6294 147.646 34.9815C144.109 34.9768 138.937 34.9784 135.673 34.9877Z" fill="black"/>
<path fill-rule="evenodd" clip-rule="evenodd" d="M199.965 56.683C198.106 56.683 185.166 56.6504 183.211 56.6333V11.384L180.456 11.426C180.439 12.0537 180.455 46.0201 180.456 60.7412C185.99 60.7443 200 60.7427 200 60.7427L199.965 56.683Z" fill="black"/>
<path fill-rule="evenodd" clip-rule="evenodd" d="M157.516 38.8565C159.309 31.3833 161.179 23.5979 162.976 16.1092C163.077 16.1077 163.344 16.1061 163.445 16.1046C163.445 16.1046 166.418 28.5106 167.025 31.0819C167.619 33.5927 168.287 36.3582 168.873 38.8565H157.516ZM168.67 26.135C167.68 21.9977 166.135 15.5173 165.041 10.8019C163.713 10.8019 162.213 10.805 161.61 10.805C157.683 26.6788 153.314 44.3829 149.346 60.7431H152.229C153.576 55.08 156.071 44.7247 156.417 43.373H169.971C171.067 47.9983 172.842 55.2276 174.148 60.7431H176.93C176.111 57.2225 174.737 51.3884 174.189 49.1077C172.349 41.4496 170.505 33.7946 168.67 26.135Z" fill="black"/>
</svg>
