<svg width="200" height="72" viewBox="0 0 200 72" fill="none" xmlns="http://www.w3.org/2000/svg">
<path fill-rule="evenodd" clip-rule="evenodd" d="M39.0564 37.7442C43.1294 37.7442 47.1822 37.7732 51.2376 37.7255C52.2114 37.713 52.4983 36.6293 51.9181 35.2156C50.4819 31.7257 48.4693 29.8511 45.914 29.7369C42.7522 29.5916 39.6079 33.2516 39.0564 37.7442ZM38.8622 45.5252C40.4124 54.1553 47.0406 56.8479 50.8491 50.6011C51.2915 49.8786 51.665 48.9735 52.2815 48.6455C53.2979 48.1036 54.2202 48.4586 54.9371 49.8122C55.6589 51.1741 55.7153 52.9678 54.9747 54.6494C53.5347 57.9026 51.5246 59.9288 49.225 60.9709C44.3375 63.1882 40.0352 61.2657 36.7142 54.9151C33.3882 48.5562 32.813 41.1406 34.9184 33.5423C37.0137 25.9875 40.8059 22.1448 45.815 21.9662C51.3504 21.769 56.3156 28.4227 57.5212 37.3705C58.0655 41.4167 56.0963 45.4754 53.4909 45.5107C49.0733 45.5709 44.6533 45.5252 40.2345 45.5252H38.8622Z" fill="black"/>
<path fill-rule="evenodd" clip-rule="evenodd" d="M144.37 37.7444C146.283 37.7444 148.196 37.7776 150.111 37.734C151.127 37.707 151.502 36.6939 150.963 35.3632C149.412 31.535 147.224 29.5399 144.429 29.7558C141.584 29.9779 139.529 32.4007 138.181 36.5216C137.803 37.6697 138.163 37.7693 138.748 37.7589C140.621 37.7257 142.495 37.7444 144.37 37.7444ZM145.645 45.5254C143.336 45.5254 141.028 45.5794 138.723 45.4964C137.861 45.4694 137.713 45.7829 138.078 47.0991C140.154 54.5583 146.25 56.4641 149.829 50.7238C150.481 49.6775 151.115 48.5461 152.112 48.6582C152.96 48.7537 153.69 49.2748 154.1 50.6844C154.56 52.2705 154.405 53.7383 153.801 55.0545C152.586 57.7056 150.943 59.491 149.085 60.5809C144.346 63.3669 140.005 61.9303 136.401 56.2087C132.996 50.8069 131.912 43.9414 133.222 36.4469C134.584 28.643 137.855 23.8432 142.675 22.2613C148.665 20.2973 154.708 26.6521 156.34 36.4282C157.154 41.2965 155.261 45.4839 152.213 45.5213C150.023 45.5483 147.833 45.5254 145.645 45.5254Z" fill="black"/>
<path fill-rule="evenodd" clip-rule="evenodd" d="M20.502 32.3048C18.4305 32.3048 16.3589 32.2882 14.2873 32.3089C12.6344 32.3255 11.5917 33.839 11.623 36.1143C11.6531 38.425 12.667 39.8242 14.3262 39.8284C17.8051 39.8346 21.2853 39.8055 24.7629 39.8408C26.179 39.8574 26.4447 40.555 25.971 42.7244C24.2416 50.6508 19.2488 55.5814 14.0605 54.4832C7.84712 53.1711 3.53233 43.3016 4.61135 32.8674C5.66028 22.7218 11.7471 15.9684 17.8527 18.1337C19.9794 18.8873 21.7477 20.6353 23.343 23.0269C24.8469 25.2836 26.847 24.3058 27.243 21.1938C27.4799 19.3254 26.8056 18.1129 26.0474 17.0542C21.299 10.4045 15.9027 8.48418 10.0966 12.1153C4.24917 15.7712 0.824156 23.0622 0.101056 33.4404C-0.852634 47.1298 5.05372 59.7895 13.172 61.7285C21.5058 63.7153 29.3045 54.5911 30.8397 41.0657C31.3986 36.1496 29.5201 32.3546 26.4836 32.3089C24.4897 32.2799 22.4959 32.3048 20.502 32.3048Z" fill="black"/>
<path fill-rule="evenodd" clip-rule="evenodd" d="M169.329 22.046C166.612 21.9318 164.142 23.2252 161.976 25.8597C159.868 28.4174 158.995 32.011 159.534 36.2586C160.05 40.3318 161.593 43.012 164.094 43.9421C166.68 44.9033 169.28 45.7711 171.872 46.6824C172.784 47.0022 173.627 47.4444 173.812 49.2733C174.001 51.1563 173.33 52.1445 172.453 52.9189C172.145 53.1888 171.825 53.44 171.496 53.631C168.339 55.4537 165.791 53.6102 163.512 50.0249C162.352 48.2 161.031 48.0921 160.075 49.618C159.157 51.0857 159.177 53.4836 160.123 55.4101C163.931 63.1745 172.225 64.2728 176.713 57.6045C178.588 54.8185 179.38 51.3992 178.715 47.3115C178.058 43.259 176.386 40.8716 173.919 39.9914C171.367 39.0758 168.811 38.1665 166.26 37.2427C165.31 36.9001 164.552 36.0905 164.455 34.3736C164.36 32.6754 165 31.7038 165.891 30.9896C168.816 28.6416 172.379 29.6879 174.596 33.6158C175.768 35.6919 177.116 35.9887 178.179 34.4006C179.254 32.7958 179.2 30.2921 177.996 28.2347C175.626 24.1926 172.736 22.1083 169.329 22.046Z" fill="black"/>
<path fill-rule="evenodd" clip-rule="evenodd" d="M186.542 37.4646C186.606 40.3523 186.393 43.6512 186.888 46.9147C188.089 54.868 192.591 61.3806 197.26 61.8228C198.72 61.966 199.727 60.7744 199.905 58.6962C200.101 56.4084 199.371 54.7954 197.906 54.2826C197.639 54.1912 197.369 54.1082 197.102 54.0189C193.681 52.8979 191.137 47.7846 191.123 41.9903C191.116 38.3635 191.152 34.7366 191.106 31.1098C191.09 29.8953 191.245 29.4448 192.046 29.4905C193.88 29.6005 195.72 29.5382 197.557 29.5216C199.032 29.5071 199.989 28.031 200 25.791C200.011 23.5509 199.067 22.0894 197.57 22.0728C195.773 22.052 193.973 21.9897 192.177 22.1018C191.288 22.1558 190.924 21.8049 190.988 20.2147C191.072 18.1511 191.021 16.0709 191.006 13.999C190.987 11.4974 190.121 9.99639 188.742 10.0213C187.418 10.0462 186.573 11.5264 186.543 13.9118C186.529 15.0786 186.563 16.2432 186.537 17.4079C186.503 18.8881 186.901 20.7254 186.362 21.7385C185.857 22.6914 184.743 21.969 183.902 22.0624C182.667 22.2015 181.791 23.6775 181.773 25.7038C181.754 27.7881 182.669 29.424 183.927 29.5195C184.396 29.5527 184.872 29.6109 185.334 29.5071C186.263 29.2932 186.662 29.7209 186.566 31.4336C186.459 33.2959 186.542 35.1851 186.542 37.4646Z" fill="black"/>
<path fill-rule="evenodd" clip-rule="evenodd" d="M95.0599 26.0423C94.818 25.7724 94.9171 25.4215 94.8782 25.1329C94.5862 22.9967 93.6187 21.8507 92.3066 22.0853C91.1725 22.2805 90.4268 23.7171 90.4243 25.8492C90.4143 36.5906 90.423 47.3342 90.4155 58.0797C90.4155 59.7655 90.8805 60.9218 91.8003 61.5467C93.3543 62.5993 94.8895 60.8201 94.9095 57.8576C94.9471 52.8751 94.9334 47.8905 94.9133 42.908C94.9058 41.4029 95.0161 39.9331 95.2705 38.5068C96.1264 33.7174 98.1341 31.0102 101.001 29.8061C102.544 29.1605 103.197 27.3564 102.85 25.0437C102.538 22.9718 101.365 21.9608 99.9023 22.4486C98.1165 23.0444 96.54 24.4063 95.0599 26.0423Z" fill="black"/>
<path fill-rule="evenodd" clip-rule="evenodd" d="M20.502 32.3048C22.4959 32.3048 24.4897 32.2799 26.4836 32.3089C29.5201 32.3546 31.3986 36.1496 30.8397 41.0657C29.3045 54.5911 21.5058 63.7153 13.172 61.7285C5.05372 59.7895 -0.852634 47.1298 0.101056 33.4404C0.824156 23.0622 4.24917 15.7712 10.0966 12.1153C15.9027 8.48418 21.299 10.4045 26.0474 17.0542C26.8056 18.1129 27.4799 19.3254 27.243 21.1938C26.847 24.3058 24.8469 25.2836 23.343 23.0269C21.7477 20.6353 19.9794 18.8873 17.8527 18.1337C11.7471 15.9684 5.66028 22.7218 4.61135 32.8674C3.53233 43.3016 7.84712 53.1711 14.0605 54.4832C19.2488 55.5814 24.2416 50.6508 25.971 42.7244C26.4447 40.555 26.179 39.8574 24.7629 39.8408C21.2853 39.8055 17.8051 39.8346 14.3262 39.8284C12.667 39.8242 11.6531 38.425 11.623 36.1143C11.5917 33.839 12.6344 32.3255 14.2873 32.3089C16.3589 32.2882 18.4305 32.3048 20.502 32.3048Z" fill="black"/>
<path fill-rule="evenodd" clip-rule="evenodd" d="M125.186 41.8517C125.185 35.171 121.916 29.7338 117.896 29.7255C113.91 29.7172 110.554 35.2146 110.528 41.7915C110.501 48.7088 113.802 54.2602 117.902 54.1937C122 54.1315 125.19 48.7254 125.186 41.8517ZM110.408 57.7832C110.362 58.0323 110.312 58.2628 110.277 58.4995C109.911 60.9367 109.067 62.0204 107.715 61.7817C106.524 61.5658 105.76 60.0129 105.755 57.6379C105.741 49.9358 105.75 42.2295 105.75 34.5253C105.75 27.7886 105.742 21.0539 105.754 14.3213C105.758 11.9774 106.412 10.4744 107.527 10.0945C109.051 9.57551 110.264 11.2384 110.285 13.9912C110.315 17.9356 110.292 21.8843 110.292 26.2772C113.244 22.5839 116.447 21.3881 119.87 22.2787C123.319 23.1777 126.044 26.1713 127.972 30.9981C130.963 38.4885 130.409 48.8957 126.725 55.4124C122.448 62.9754 116.995 63.7809 110.408 57.7832Z" fill="black"/>
<path fill-rule="evenodd" clip-rule="evenodd" d="M72.4813 54.0706C76.6294 54.0831 79.8827 48.8058 79.9028 42.0254C79.9203 35.243 76.677 29.7851 72.5928 29.7249C68.4923 29.6647 65.155 35.2036 65.1613 42.0524C65.1676 48.7227 68.4171 54.0561 72.4813 54.0706ZM80.0444 26.1582C80.28 23.4926 80.9392 22.2241 82.1686 22.0726C83.5007 21.9106 84.576 23.3597 84.5847 25.5852C84.6236 36.5343 84.6311 47.4771 84.6236 58.4262C84.6223 60.1431 83.8265 61.5236 82.8503 61.7956C81.7462 62.1028 80.7888 61.2994 80.3614 59.6469C80.2148 59.0739 80.1446 58.4469 80.0406 57.8428C73.0302 63.9941 67.0699 62.7194 63.0233 54.2097C59.4141 46.6239 59.6447 35.9883 63.6073 28.5311C66.808 22.5085 73.4901 18.452 80.0444 26.1582Z" fill="black"/>
<path fill-rule="evenodd" clip-rule="evenodd" d="M169.329 22.046C172.736 22.1083 175.626 24.1926 177.996 28.2347C179.2 30.2921 179.254 32.7958 178.179 34.4006C177.116 35.9887 175.768 35.6919 174.596 33.6158C172.379 29.6879 168.816 28.6416 165.891 30.9896C165 31.7038 164.36 32.6754 164.455 34.3736C164.552 36.0905 165.31 36.9001 166.26 37.2427C168.811 38.1665 171.367 39.0758 173.919 39.9914C176.386 40.8716 178.058 43.259 178.715 47.3115C179.38 51.3992 178.588 54.8185 176.713 57.6045C172.225 64.2728 163.931 63.1745 160.123 55.4101C159.177 53.4836 159.157 51.0857 160.075 49.618C161.031 48.0921 162.352 48.2 163.512 50.0249C165.791 53.6102 168.339 55.4537 171.496 53.631C171.825 53.44 172.145 53.1888 172.453 52.9189C173.33 52.1445 174.001 51.1563 173.812 49.2733C173.627 47.4444 172.784 47.0022 171.872 46.6824C169.28 45.7711 166.68 44.9033 164.094 43.9421C161.593 43.012 160.05 40.3318 159.534 36.2586C158.995 32.011 159.868 28.4174 161.976 25.8597C164.142 23.2252 166.612 21.9318 169.329 22.046Z" fill="black"/>
<path fill-rule="evenodd" clip-rule="evenodd" d="M186.542 37.4646C186.542 35.1851 186.459 33.2959 186.566 31.4336C186.662 29.7209 186.263 29.2932 185.334 29.5071C184.872 29.6109 184.396 29.5527 183.927 29.5195C182.669 29.424 181.754 27.7881 181.773 25.7038C181.791 23.6775 182.667 22.2015 183.902 22.0624C184.743 21.969 185.857 22.6914 186.362 21.7385C186.901 20.7254 186.503 18.8881 186.537 17.4079C186.563 16.2432 186.529 15.0786 186.543 13.9118C186.573 11.5264 187.418 10.0462 188.742 10.0213C190.121 9.99639 190.987 11.4974 191.006 13.999C191.021 16.0709 191.072 18.1511 190.988 20.2147C190.924 21.8049 191.288 22.1558 192.177 22.1018C193.973 21.9897 195.773 22.052 197.57 22.0728C199.067 22.0894 200.011 23.5509 200 25.791C199.989 28.031 199.032 29.5071 197.557 29.5216C195.72 29.5382 193.88 29.6005 192.046 29.4905C191.245 29.4448 191.09 29.8953 191.106 31.1098C191.152 34.7366 191.116 38.3635 191.123 41.9903C191.137 47.7846 193.681 52.8979 197.102 54.0189C197.369 54.1082 197.639 54.1912 197.906 54.2826C199.371 54.7954 200.101 56.4084 199.905 58.6962C199.727 60.7744 198.72 61.966 197.26 61.8228C192.591 61.3806 188.089 54.868 186.888 46.9147C186.393 43.6512 186.606 40.3523 186.542 37.4646Z" fill="black"/>
<path fill-rule="evenodd" clip-rule="evenodd" d="M95.0599 26.0423C96.54 24.4063 98.1165 23.0444 99.9023 22.4486C101.365 21.9608 102.538 22.9718 102.85 25.0437C103.197 27.3564 102.544 29.1605 101.001 29.8061C98.1341 31.0102 96.1264 33.7174 95.2705 38.5068C95.0161 39.9331 94.9058 41.4029 94.9133 42.908C94.9334 47.8905 94.9471 52.8751 94.9095 57.8576C94.8895 60.8201 93.3543 62.5993 91.8003 61.5467C90.8805 60.9218 90.4155 59.7655 90.4155 58.0797C90.423 47.3342 90.4143 36.5906 90.4243 25.8492C90.4268 23.7171 91.1725 22.2805 92.3066 22.0853C93.6187 21.8507 94.5862 22.9967 94.8782 25.1329C94.9171 25.4215 94.818 25.7724 95.0599 26.0423Z" fill="black"/>
</svg>
