<svg width="200" height="72" viewBox="0 0 200 72" fill="none" xmlns="http://www.w3.org/2000/svg">
<path fill-rule="evenodd" clip-rule="evenodd" d="M72.9309 32.8803C73.1306 29.427 76.9004 26.7521 81.3476 26.9085L81.4676 26.9132C85.4204 26.7254 88.8206 29.0608 89.0618 32.1285C89.082 32.3788 89.0797 32.63 89.0559 32.8803H72.9309ZM81.4545 21.4981C70.7822 21.4981 66.1092 27.0539 64.6165 31.754C64.2065 33.0211 64.0009 34.3231 64.0033 35.6306C63.9462 38.7259 65.1466 41.7569 67.4343 44.2928C70.8999 47.7526 76.2277 49.7778 81.8729 49.7824C87.6345 49.9453 91.4839 49.1871 94.4277 47.8887C95.016 47.5924 95.2953 47.0394 95.1253 46.5131V42.9062C95.1253 42.171 94.5537 41.8241 93.7301 42.2676C90.2836 43.9818 86.1965 44.7455 82.1236 44.4336C77.3247 44.3848 73.3267 41.5646 72.8062 37.861H96.5194C97.0542 37.861 97.4892 37.5279 97.4975 37.1129C97.9146 32.0779 96.0309 21.4981 81.4545 21.4981ZM23.9809 44.8449H13.5605C12.2235 44.8155 10.9329 44.463 9.86445 43.8373C8.74968 43.23 8.09603 42.2326 8.12099 41.1744C8.12099 39.7114 9.39025 36.789 15.7366 36.789H23.9821L23.9809 44.8449ZM31.7237 32.837C31.7237 29.1445 30.6648 26.339 28.3746 24.4012C26.088 22.4633 21.484 21.499 17.215 21.499C12.9318 21.4861 8.71878 22.3566 5.00961 24.0221C4.7743 24.1306 4.62931 24.3285 4.63406 24.5419L4.95494 28.6136C5.04289 29.0083 5.52778 29.2724 6.03644 29.2025C6.20401 29.1804 6.36089 29.1224 6.48805 29.0359C11.7196 26.535 17.997 26.0685 21.1916 27.3245C22.9826 28.125 24.0558 29.6303 23.9821 31.2351V31.8295H15.2624C11.5105 31.8295 0.0157315 32.9125 0.0157315 41.1091V41.1965C-0.164913 43.726 1.21845 46.1717 3.74034 47.7792C6.45715 49.2653 9.74204 49.994 13.0578 49.8477H30.7064C31.2756 49.8477 31.7379 49.4889 31.7379 49.0472V32.8039L31.7237 32.837ZM119.356 44.3692C115.045 44.3692 111.934 41.9216 110.623 38.8787C109.696 36.7725 109.696 34.4878 110.623 32.3816C111.934 29.3386 115.045 26.892 119.356 26.892C128.994 26.892 129.315 34.5255 129.315 35.6306C129.315 36.7348 128.994 44.3692 119.356 44.3692ZM137.225 35.6407C137.301 32.5435 136.098 29.508 133.794 26.9785C127.607 20.7887 116.128 19.6633 108.153 24.4665C106.943 25.1952 105.857 26.039 104.917 26.9785C100.276 32.192 100.276 39.0903 104.917 44.3039C108.327 47.817 113.69 49.856 119.357 49.7943C123.014 49.8036 126.594 48.9662 129.637 47.39V50.812C129.637 55.4569 124.405 56.3016 121.056 56.4635C118.753 56.5234 116.447 56.4258 114.166 56.1719C113.246 56.0633 112.604 56.1719 112.604 56.9402V61.0551C112.628 61.4443 113.051 61.7452 113.551 61.7268C121.321 62.2466 126.554 62.1381 130.488 60.3953C133.243 59.1301 135.289 57.1095 136.221 54.7318C136.916 52.8971 137.25 50.9915 137.211 49.0794V35.6407H137.225ZM162.908 23.09V26.339C162.986 26.8018 162.568 27.2269 161.972 27.2895C161.818 27.3051 161.66 27.295 161.511 27.26C154.731 26.177 150.561 28.516 150.561 33.379V49.0794C150.561 49.5211 150.097 49.8799 149.529 49.8799H143.53C142.959 49.8799 142.498 49.5211 142.498 49.0794V33.0422C142.426 29.9745 144.031 27.0263 146.919 24.9321C149.852 22.7063 153.797 21.4687 157.898 21.488C159.303 21.4907 160.703 21.592 162.083 21.7916C162.795 21.9757 162.906 22.3005 162.906 23.135V23.0909L162.908 23.09ZM45.2816 49.0803C45.2816 49.522 44.8181 49.8808 44.2488 49.8808H38.2507C37.6802 49.8808 37.2179 49.522 37.2179 49.0803V10.8024C37.2179 10.3635 37.6719 10.0055 38.2364 10H44.2345C44.805 10 45.2685 10.3589 45.2685 10.8024V49.0803H45.2816ZM59.3707 49.0803C59.3707 49.522 58.9072 49.8808 58.3391 49.8808H52.3398C51.7693 49.8808 51.307 49.522 51.307 49.0803V10.8024C51.307 10.3589 51.7705 10 52.3398 10H58.3391C58.9084 10 59.3707 10.3589 59.3707 10.8024V49.0803ZM190.847 38.9017C189.535 41.9446 186.424 44.3149 182.114 44.3913C177.802 44.4676 174.692 41.9437 173.395 38.9017C172.468 36.7946 172.468 34.5098 173.395 32.4046C174.707 29.3617 177.817 26.9895 182.114 26.9141C186.41 26.8386 189.535 29.3617 190.847 32.4046C191.769 34.5071 191.769 36.7881 190.847 38.8907V38.9017ZM196.566 26.9895C190.379 20.8006 178.899 19.6762 170.925 24.4775C169.716 25.2072 168.629 26.051 167.69 26.9895C165.4 29.5264 164.199 32.5564 164.258 35.6527C164.199 38.749 165.4 41.7799 167.69 44.3149C173.877 50.5047 185.356 51.63 193.33 46.8269C194.539 46.0991 195.627 45.2553 196.566 44.3149C198.854 41.7799 200.055 38.748 199.998 35.6527C200.055 32.5573 198.854 29.5264 196.566 26.9895Z" fill="black"/>
</svg>
