<svg width="200" height="72" viewBox="0 0 200 72" fill="none" xmlns="http://www.w3.org/2000/svg">
<path fill-rule="evenodd" clip-rule="evenodd" d="M114.602 20.5485C117.055 20.5485 118.567 21.9353 119.41 23.1023L119.651 23.4389L119.795 22.989C120.178 21.8339 120.94 21.2013 121.93 21.2013H124.359L124.338 48.0994C124.338 58.3536 119.147 62 114.7 62C112.54 62 110.15 61.0664 108.316 59.5087L107.951 59.1992L108.537 56.7976L108.951 55.1571C109.402 53.3779 110.049 52.9364 111.158 53.4709C112.007 53.9631 113.275 54.5076 114.669 54.5076C117.537 54.5076 119.122 52.3445 119.122 48.4309V47.6157L118.718 48.0994C117.674 49.3628 116.362 49.9818 114.7 49.9818C109.832 49.9818 106.431 43.8847 106.431 35.1561C106.431 26.4206 109.719 20.5485 114.602 20.5485ZM143.29 20.7092C145.984 20.7092 149.993 22.5408 149.993 27.5842V31.4065L147.26 31.3997C147.031 31.3997 145.868 31.2915 145.483 29.24L145.46 29.0894C145.291 28.1846 144.226 27.6451 143.29 27.6451C140.403 27.6451 138.387 31.0547 138.387 35.9256C138.387 41.5694 140.986 44.1012 143.563 44.1012C146.217 44.1012 148.269 40.903 148.521 40.4903L148.546 40.4481L148.831 39.9627L150.995 45.7079L150.852 45.9921C150.827 46.0411 148.135 51.2519 143.184 51.2519C137.478 51.2519 133.341 44.8352 133.341 35.9848C133.341 27.1394 137.522 20.7092 143.29 20.7092ZM28.56 20.6804C34.1195 20.6804 38.1545 27.0684 38.1545 35.8681C38.1545 44.6661 34.1195 51.0557 28.56 51.0557C23.0205 51.0557 19.0013 44.6661 19.0013 35.8681C19.0013 27.0684 23.0205 20.6804 28.56 20.6804ZM49.0701 20.6804C54.6233 20.6804 58.6667 27.0684 58.6667 35.8681C58.6667 44.6661 54.6233 51.0557 49.0701 51.0557C43.5253 51.0557 39.5061 44.6661 39.5061 35.8681C39.5061 27.0684 43.5263 20.6804 49.0701 20.6804ZM160.999 20.6804C166.551 20.6804 170.593 27.0684 170.593 35.8681C170.593 44.6661 166.551 51.0557 160.999 51.0557C155.455 51.0557 151.436 44.6661 151.436 35.8681C151.436 27.0684 155.455 20.6804 160.999 20.6804ZM81.5522 21.2791C83.4036 21.2791 84.2998 22.7336 84.2998 25.7306L84.2893 50.589H84.2787V50.5991H83.0557L81.8253 50.6059C81.7926 50.6059 81.7641 50.5991 81.7304 50.5991H79.0893V43.9524H79.0914L79.0766 21.2791H81.5522ZM63.0137 10C64.4582 10 65.7972 10.4685 65.7972 13.9102V31.1139H66.6354C67.2638 31.1139 67.6834 30.8653 67.8901 30.3782L71.5634 21.2791H77.4972L72.6082 32.9117C72.3583 33.502 72.0979 34.0111 71.8449 34.4389L71.6678 34.7096L71.8365 34.9937C72.0979 35.43 72.3457 35.9814 72.5608 36.6292L74.5514 42.6602L77.551 50.6092H73.5202C72.002 50.6092 71.1965 50.2 70.3846 47.8237L67.4852 39.0578C67.2975 38.5386 66.8895 38.427 66.2906 38.427H65.7972V50.6076H60.5413L60.535 10.0017H63.0127L63.0137 10ZM98.0843 20.6128C102.359 20.6128 104.617 24.5314 104.617 31.9443L104.625 50.5974H102.139C100.241 50.5974 99.3632 49.1734 99.3632 46.1375V33.365C99.3632 29.8048 98.7274 28.4265 97.0964 28.4265C95.071 28.4265 93.4483 30.3951 92.8684 33.5629C92.6491 34.6081 92.5426 35.7548 92.5426 37.079V50.5974H87.3215L87.3068 21.2673H89.6622C91.0877 21.2673 92.0345 22.2161 92.3139 23.9395L92.4277 24.6397L92.7472 24.1255C93.7024 22.5188 95.4094 20.6128 98.0843 20.6128ZM193.919 20.7075L194.163 20.7142C198.034 20.8665 200 24.6448 200 31.9426L199.995 50.589H197.648C195.805 50.589 194.985 49.2731 194.985 46.3202V33.2737C194.985 29.5342 194.415 28.1406 192.881 28.1406C190.759 28.1406 189.391 31.19 188.988 34.1683C188.791 35.2237 188.708 36.2824 188.708 37.6947V50.589H183.685V33.2737C183.685 30.0298 183.023 28.352 181.668 28.1457C179.469 27.8108 178.158 31.1613 177.683 34.2783C177.508 35.4469 177.419 36.5683 177.419 37.6947V50.589H172.433L172.454 21.3772H174.648C176.017 21.3772 176.922 22.2702 177.196 23.8972L177.388 25.0253L177.882 24.1661C178.639 22.8808 180.265 20.7092 182.693 20.7092C185.008 20.7092 186.672 22.1434 187.639 24.9661L187.935 25.8253L188.314 25.0574C189.658 22.3345 191.754 20.7109 193.921 20.7109L193.919 20.7075ZM3.19149 10.0169H8.65297C13.4397 10.0169 16.531 14.1386 16.531 20.5197C16.531 24.6904 15.2236 27.1039 14.4434 28.1778L13.7729 29.0962L14.5415 29.7896C16.4066 31.4691 17.5147 34.7738 17.5147 38.6435C17.5147 45.8212 14.0828 50.4587 8.76157 50.4587L2.51671 50.4604L2.50617 50.4587H0V14.2316C0.0137064 11.9467 1.15134 10.0964 2.57048 10.0169H3.19149ZM28.56 27.7872C25.941 27.7872 24.1233 31.1139 24.1233 35.8698C24.1233 40.6223 25.941 43.9541 28.56 43.9541C31.2306 43.9541 33.0325 40.7001 33.0325 35.8698C33.0325 31.1139 31.1937 27.7855 28.56 27.7855V27.7872ZM49.0701 27.7872C46.4521 27.7872 44.6302 31.1139 44.6302 35.8698C44.6302 40.6223 46.4521 43.9541 49.069 43.9541C51.7407 43.9541 53.5426 40.7001 53.5426 35.8698C53.5426 31.1139 51.6975 27.7855 49.0701 27.7855V27.7872ZM160.999 27.7872C158.381 27.7872 156.557 31.1139 156.557 35.8698C156.557 40.6223 158.381 43.9541 160.998 43.9541C163.668 43.9541 165.474 40.7001 165.474 35.8698C165.474 31.1139 163.626 27.7855 160.998 27.7855L160.999 27.7872ZM9.11056 32.6208H6.21428C5.2833 32.8305 4.86157 33.732 4.86157 35.4723V43.6091L9.11161 43.6175C11.215 43.6158 12.5192 41.5592 12.5192 38.0921C12.5192 34.7096 11.1792 32.6208 9.11056 32.6208ZM115.35 27.9225C112.015 27.9225 111.755 33.2923 111.755 34.9379C111.755 38.6722 112.771 42.6602 115.624 42.6602C117.264 42.6602 119.219 41.3698 119.219 35.2136C119.219 28.6869 117.01 27.9242 115.35 27.9242V27.9225ZM8.61923 16.6467H6.44413C5.35816 16.7617 4.86157 17.6513 4.86157 19.527V26.3648H8.68671C10.8365 26.3648 11.602 23.7044 11.602 21.4246C11.602 18.4361 10.4854 16.6467 8.61923 16.6467Z" fill="black"/>
<path d="M133.077 47.4714C133.077 49.2545 131.699 50.7 130 50.7C128.301 50.7 126.923 49.2545 126.923 47.4714C126.923 45.6883 128.301 44.2428 130 44.2428C131.699 44.2428 133.077 45.6883 133.077 47.4714Z" fill="black"/>
<path d="M84.4616 15.1854C84.4616 16.9685 83.084 18.414 81.3847 18.414C79.6853 18.414 78.3077 16.9685 78.3077 15.1854C78.3077 13.4023 79.6853 11.9568 81.3847 11.9568C83.084 11.9568 84.4616 13.4023 84.4616 15.1854Z" fill="black"/>
</svg>
