<svg width="200" height="72" viewBox="0 0 200 72" fill="none" xmlns="http://www.w3.org/2000/svg">
<path fill-rule="evenodd" clip-rule="evenodd" d="M170.008 27.4597C169.91 27.2302 169.762 27.0929 169.606 27.0929H166.877C166.629 27.0929 166.411 27.431 166.362 27.9044L166.149 29.9127C165.544 28.8553 164.939 28.179 164.073 27.5253L163.802 27.2937C163.768 27.2712 163.736 27.2445 163.701 27.2322C160.739 25.9678 157.761 27.7036 155.323 32.1177C154.106 34.296 153.183 36.8207 152.571 39.5381L156.156 11.2255C156.187 11 156.16 10.7541 156.085 10.5697C156.012 10.3853 155.896 10.2767 155.775 10.2767H152.453C152.338 10.2767 152.232 10.3689 152.158 10.5369L137.704 42.2636C138.211 37.5093 141.051 11.1988 141.051 11.1988C141.051 11.1476 141.058 11.0902 141.058 11.041C141.058 10.8709 141.03 10.6947 140.97 10.5594C140.896 10.3812 140.782 10.2767 140.665 10.2767H136.996C136.88 10.2767 136.77 10.375 136.697 10.5369L118.366 51.7066C118.058 45.7125 116.593 39.1856 116.593 39.1856C114.136 29.3963 108.67 26.2261 105.57 31.839L105.549 31.8492L105.062 32.5357C107.311 25.5559 113.016 25.8674 116.688 34.085C116.688 34.085 118.321 37.9007 119.478 43.5771C119.787 41.573 119.976 39.495 120.034 37.372C118.121 32.341 115.966 29.386 115.966 29.386C111.326 23.2997 105.773 25.8695 104.531 33.7448L104.514 33.7776L104.275 34.8432C104.426 26.6052 109.445 21.3345 114.736 24.8776C114.736 24.8776 117.228 26.6564 119.742 30.5951C119.708 30.2815 119.674 29.968 119.63 29.6524C119.358 27.5724 118.963 25.599 118.455 23.7608C115.523 21.2914 112.922 20.8324 112.922 20.8324C107.337 20.0783 103.191 27.6933 104.141 35.7223L104.134 35.7654L104.197 36.9273C102.212 29.6442 105.202 20.2053 110.693 18.1212C110.693 18.1212 113.245 17.2605 116.38 18.1684C115.586 16.5351 114.677 15.1047 113.67 13.8956C110.526 14.6129 108.18 16.7298 108.18 16.7298C103.152 21.5005 101.518 32.1341 104.406 38.1691L104.409 38.204L104.764 39.1528C101.174 34.7756 101.337 23.687 105.558 16.5433C105.558 16.5433 107.531 13.3464 110.467 11.08C109.256 10.375 108 10.0143 106.735 10C104.28 13.6313 102.848 17.5761 102.848 17.5761C99.7188 26.6031 101.04 37.3986 105.088 39.8168L105.104 39.8413L105.654 40.3188C101.421 40.0237 98.7096 30.261 100.53 19.9697C100.53 19.9697 101.369 15.531 103.219 10.8648C102.16 11.3996 101.158 12.1804 100.218 13.16C99.0229 18.7032 98.799 23.5292 98.799 23.5292C98.4101 34.3903 102.329 42.4542 106.458 40.6119L106.477 40.6221L107.076 40.493C103.332 44.3579 98.4742 38.5421 97.4083 27.8552C97.4083 27.8552 96.9804 23.0804 97.4083 17.1314C96.5158 18.7749 95.7348 20.6623 95.0883 22.771C95.4888 28.6319 96.5126 32.9394 96.5126 32.9394C98.9672 42.7247 104.433 45.899 107.533 40.2819L107.557 40.2737L108.042 39.5893C105.795 46.567 100.088 46.2555 96.418 38.038C96.418 38.038 94.5364 33.4661 93.5525 28.1401C93.5546 27.8901 93.5157 27.6503 93.4347 27.4597C93.3338 27.2302 93.1867 27.0929 93.0269 27.0929H90.3011C90.0509 27.0929 89.8354 27.431 89.7829 27.9044C89.7829 27.9044 89.5737 28.5233 89.478 29.7405C88.8725 28.6872 88.1546 28.0765 87.4997 27.5253L87.2222 27.2937C87.1906 27.2712 87.1559 27.2445 87.1244 27.2322C84.1621 25.9678 81.1851 27.7036 78.7463 32.1177C77.3052 34.6977 76.2708 37.7572 75.6832 41.0627L75.6327 41.2799L76.7922 28.2876C76.8174 27.9946 76.7753 27.6872 76.6744 27.4556C76.5725 27.2261 76.4243 27.0908 76.2708 27.0929L73.3611 27.1011C73.1067 27.1031 72.888 27.4556 72.8428 27.9474L69.8364 59.8257C69.8101 60.1249 69.8532 60.4344 69.952 60.67C70.0519 60.8975 70.2011 61.0307 70.3567 61.0307L73.4231 61.045C73.6817 61.045 73.9014 60.6844 73.9434 60.1926L75.1018 47.2207C75.1144 47.3027 75.125 47.356 75.125 47.356C75.1145 48.645 75.1691 49.9524 75.2932 51.2578C75.7441 56.133 77.9664 60.6803 80.362 61.6065C82.4518 62.3422 84.6867 61.3115 86.8921 58.6638C86.849 59.1269 86.7796 59.8257 86.7796 59.8257C86.7733 59.8872 86.7712 59.9487 86.7712 60.0143C86.7712 60.252 86.8132 60.4856 86.8921 60.67C86.9909 60.9016 87.1402 61.0307 87.2999 61.0307L90.0057 61.045C90.2601 61.045 90.4788 60.6967 90.525 60.2089L92.907 35.1198C94.6888 39.2348 97.0193 42.7492 97.0193 42.7492C101.658 48.8396 107.21 46.2678 108.451 38.3966L108.47 38.3618L108.711 37.2921C108.559 45.528 103.539 50.8069 98.2471 47.2576C98.2471 47.2576 95.965 45.6264 93.5609 42.0279C93.5809 42.198 93.5987 42.3742 93.6208 42.5484C93.9067 44.7022 94.3198 46.7474 94.8549 48.645C97.6511 50.8848 100.064 51.309 100.064 51.309C105.645 52.0672 109.792 44.446 108.844 36.415L108.852 36.374L108.785 35.208C110.772 42.491 107.782 51.9443 102.287 54.014C102.287 54.014 99.887 54.8337 96.8764 54.0407C97.5975 55.5161 98.409 56.84 99.3057 57.9753C102.426 57.2396 104.736 55.1493 104.736 55.1493C109.766 50.3807 111.402 39.745 108.514 33.7161L108.508 33.671L108.155 32.7284C111.746 37.1035 111.585 48.1921 107.362 55.3379C107.362 55.3379 105.348 58.59 102.371 60.8606C103.191 61.3996 104.036 61.7807 104.891 62H106.108C108.609 58.3318 110.068 54.303 110.068 54.303C113.2 45.276 111.88 34.4764 107.829 32.0644L107.813 32.0316L107.265 31.5603C111.5 31.8574 114.212 41.6181 112.39 51.9135C112.39 51.9135 111.48 56.7293 109.462 61.6127C109.624 61.543 109.78 61.4774 109.941 61.3955C110.965 60.8914 111.927 60.1516 112.822 59.254C114.073 53.5919 114.304 48.5876 114.304 48.5876C114.696 37.7347 110.776 29.6647 106.644 31.5111L106.627 31.5029L106.029 31.6259C109.771 27.765 114.632 33.5808 115.7 44.2677C115.7 44.2677 116.316 49.1737 115.855 54.9854C115.766 55.8256 115.586 57.0408 115.237 58.34C115.131 58.7007 115 59.1269 114.84 59.6229L114.845 59.6085C114.842 59.6229 114.836 59.6331 114.832 59.6495C114.828 59.6638 114.828 59.6659 114.828 59.6782C114.765 59.8852 114.752 60.1454 114.807 60.3749C114.868 60.6495 115.008 60.8237 115.165 60.8176H116.867C117.763 60.8094 118.531 60.7991 119.554 60.8688C119.676 60.8729 119.793 60.7705 119.87 60.5963L134.671 26.181C134.047 32.4599 132.275 48.604 131.008 59.9384C131.005 59.9938 131.001 60.0491 131.001 60.1024C131.001 60.2766 131.031 60.4467 131.086 60.5819C131.162 60.7663 131.275 60.8688 131.399 60.8688L134.393 60.8176C134.506 60.8176 134.614 60.7233 134.688 60.5512C134.688 60.5512 147.964 30.3512 149.662 26.4925C148.955 32.796 147.016 48.7187 145.635 59.9221C145.625 59.9835 145.62 60.0368 145.62 60.1003C145.62 60.2663 145.65 60.4364 145.707 60.5737C145.782 60.7602 145.895 60.8688 146.018 60.8688H149.558C149.739 60.8688 149.9 60.6291 149.943 60.2807L151.476 48.188L151.689 46.4871C151.696 46.9728 151.7 47.356 151.7 47.356C151.692 48.645 151.747 49.9524 151.871 51.2578C152.318 56.133 154.545 60.6803 156.937 61.6065C159.025 62.3422 161.263 61.3115 163.468 58.6638L163.355 59.8257C163.35 59.8872 163.346 59.9487 163.346 60.0143C163.346 60.252 163.388 60.4856 163.466 60.67C163.569 60.9016 163.718 61.0307 163.871 61.0307L166.579 61.045C166.837 61.045 167.053 60.6967 167.1 60.2089L169.545 34.9477L170.13 28.1401C170.132 27.8901 170.093 27.6503 170.008 27.4597ZM0 60.377V59.7417C0.0168192 59.6761 0.0367919 59.6126 0.0630719 59.5573L21.9322 10.5369C22.0079 10.373 22.1151 10.2746 22.2318 10.2746H25.7617C25.8774 10.2746 25.9888 10.3791 26.0666 10.5574C26.1223 10.6927 26.1549 10.873 26.1549 11.039C26.1549 11.0882 26.1496 11.1455 26.1444 11.1968C26.1444 11.1968 23.406 37.5052 22.8962 42.2636C24.6233 38.4724 37.3522 10.5369 37.3522 10.5369C37.4258 10.3689 37.5351 10.2767 37.6445 10.2767H40.9684C41.0903 10.2767 41.2059 10.3853 41.2806 10.5697C41.3542 10.7541 41.3815 11 41.3499 11.2255L37.8621 38.7675C37.8915 38.6651 37.9157 38.5647 37.943 38.4704C39.6029 32.1915 42.7575 27.7773 46.1707 26.9658C46.1813 26.9597 46.1949 26.9597 46.2086 26.9597C49.296 26.6564 51.679 28.927 53.1076 33.5173L53.1307 33.5911C53.6437 35.5953 54.0264 38.2901 54.0947 41.0627C54.6781 37.7572 55.7135 34.6977 57.1537 32.1177C59.5924 27.7036 62.5673 25.9678 65.5328 27.2322C65.5633 27.2445 65.6001 27.2712 65.6305 27.2937L65.906 27.5253C66.564 28.0765 67.2799 28.6872 67.8854 29.7405C68.206 26.808 69.1468 18.1048 69.1468 18.1048C69.1994 17.6335 69.4138 17.2933 69.6619 17.2933H72.3897C72.5474 17.2933 72.6946 17.4306 72.7955 17.6581C72.8954 17.8917 72.9374 18.2032 72.9111 18.5024L68.9324 60.2089C68.885 60.6967 68.6685 61.045 68.4141 61.045L65.7073 61.0307C65.5496 61.0307 65.3982 60.9016 65.2984 60.67C65.2195 60.4856 65.1764 60.252 65.1764 60.0143C65.1764 59.9507 65.1806 59.8852 65.1869 59.8257C65.1869 59.8257 65.2553 59.1269 65.2984 58.6638C63.0929 61.3115 60.8612 62.3422 58.7694 61.6045C56.3758 60.6803 54.1504 56.133 53.7005 51.2578C53.5785 49.9524 53.5239 48.645 53.5302 47.356C53.4356 47.5199 53.3105 47.6224 53.177 47.6224L40.6152 47.6326C40.6036 47.7351 40.5941 47.8232 40.5941 47.9298C40.5941 48.3027 40.6614 48.7905 40.7476 49.3438L40.8012 49.7024C41.3973 52.5509 42.8279 54.3378 44.451 54.262C46.0646 54.1903 47.5594 52.6882 48.8881 49.8008C48.9859 49.5815 49.1299 49.4585 49.2781 49.4585H52.0785C52.2593 49.4585 52.4296 49.6389 52.5231 49.938C52.6209 50.2352 52.6335 50.6082 52.5578 50.9258C50.9674 57.4261 47.4028 61.791 43.6615 61.791C41.0577 61.5942 38.8733 59.131 37.6571 55.012C37.0516 52.8173 36.7646 50.0938 36.7814 47.3027L35.1384 60.2807C35.0943 60.6291 34.9334 60.8688 34.7526 60.8688H31.2101C31.0903 60.8688 30.9757 60.7602 30.9031 60.5737C30.8443 60.4364 30.8148 60.2663 30.8148 60.1024C30.8148 60.0368 30.8201 59.9815 30.8253 59.9221C32.2098 48.7187 34.1492 32.796 34.8535 26.4945L19.8813 60.5532C19.8077 60.7233 19.7005 60.8176 19.5859 60.8176L16.5932 60.8688C16.4723 60.8688 16.3609 60.7663 16.2841 60.5819C16.2274 60.4467 16.1958 60.2745 16.1958 60.1003C16.1958 60.0491 16.1958 59.9938 16.2032 59.9384C17.4699 48.604 19.2411 32.4579 19.8645 26.181L5.06362 60.5963C4.98689 60.7705 4.8702 60.8729 4.74826 60.8688C3.7265 60.7991 2.95702 60.8073 2.0614 60.8176H0.357408C0.204984 60.8237 0.0651743 60.6495 0 60.377ZM165.14 44.8764C164.527 49.0405 162.502 53.0058 160.52 53.9403C159.004 54.3296 157.894 54.053 157.125 53.0796C156.308 51.9894 155.898 50.0979 155.582 48.3929C155.529 47.7822 155.498 47.1674 155.498 46.567C155.498 42.7738 156.542 39.118 158.464 36.3166C159.565 34.8166 161.067 34.2469 162.381 34.8329C163.122 35.167 164.139 36.0236 164.772 38.2552C165.124 39.4663 165.315 41.0012 165.315 42.4972C165.315 43.3251 165.256 44.1366 165.14 44.8764ZM41.7967 40.0914L49.9361 39.9418C49.8731 38.8085 49.5661 37.749 48.9228 36.4949C48.2132 35.3125 47.2409 34.7571 45.8585 34.7428C44.3616 35.1485 42.6135 37.0625 41.7967 40.0914ZM66.9729 44.8764C67.0885 44.1366 67.1443 43.3251 67.1443 42.4992C67.1443 41.0012 66.9571 39.4663 66.6039 38.2573C65.9659 36.0236 64.9536 35.167 64.2093 34.835C62.8974 34.2469 61.3953 34.8145 60.2904 36.3166C58.3741 39.118 57.3282 42.7718 57.3282 46.567C57.3282 47.1674 57.3576 47.7822 57.4123 48.3929C57.7287 50.0979 58.1376 51.9894 58.9533 53.0796C59.727 54.053 60.8392 54.3296 62.3497 53.9403C64.3302 53.0058 66.3559 49.0405 66.9729 44.8764ZM73.6039 18.1048L72.9679 24.81C72.9385 25.1092 72.9816 25.4227 73.0814 25.6646C73.1813 25.8941 73.3295 26.0293 73.4893 26.0293H76.5588C76.8111 26.0293 77.0318 25.6809 77.077 25.1891L77.6541 18.5434C77.6783 18.2462 77.6373 17.9347 77.5396 17.7032C77.4397 17.4716 77.2915 17.3343 77.1401 17.3323L74.1221 17.281C73.8698 17.2769 73.6522 17.6274 73.6039 18.1048ZM88.5656 44.8764C87.9506 49.0405 85.9229 53.0058 83.9445 53.9403C82.4308 54.3296 81.3207 54.053 80.547 53.0796C79.7313 51.9894 79.3235 50.0979 79.007 48.3929C78.9524 47.7822 78.9229 47.1674 78.9229 46.567C78.9229 42.7738 79.9668 39.118 81.8873 36.3166C82.9911 34.8166 84.4891 34.2469 85.8052 34.8329C86.5473 35.167 87.5617 36.0236 88.1966 38.2552C88.5509 39.4663 88.7401 41.0012 88.7401 42.4972C88.7401 43.3251 88.6802 44.1366 88.5656 44.8764ZM189.455 58.0757L184.399 42.2882C184.809 41.3475 189.112 31.1525 189.985 29.1544L189.598 33.1075C189.569 33.4087 189.612 33.7182 189.713 33.9497C189.812 34.1813 189.959 34.3206 190.118 34.3206H191.458C191.306 36.124 189.903 52.7373 189.455 58.0757ZM174.737 29.0417L174.796 28.304C174.827 28.0069 174.783 27.6974 174.686 27.4638C174.584 27.2322 174.438 27.0949 174.282 27.0949H171.551C171.299 27.0888 171.078 27.4351 171.03 27.9228L170.953 28.7262L168.035 59.7397C168.01 60.0389 168.056 60.3524 168.159 60.584C168.262 60.8135 168.419 60.9508 168.577 60.9426L169.924 60.9036H171.191C171.443 60.9036 171.653 60.5614 171.703 60.088L173.705 40.8414C174.367 35.9641 176.028 34.5112 177.498 34.0891C177.577 34.0686 177.873 34.0768 177.936 33.9989C176.929 45.6674 175.737 59.4835 175.715 59.7171C175.69 60.0081 175.734 60.3114 175.834 60.543C175.933 60.7704 176.082 60.9036 176.232 60.9036H179.173C179.403 60.9036 179.608 60.6167 179.673 60.1864C179.768 59.6249 180.471 51.6943 180.892 46.9297C181.981 50.1409 185.46 60.4344 185.46 60.4344C185.558 60.7213 185.723 60.8934 185.898 60.8934L189.413 60.9036C189.478 60.9036 189.535 60.875 189.595 60.8381C189.67 60.9036 189.753 60.9487 189.835 60.9426L192.802 60.9036C193.059 60.8996 193.274 60.543 193.316 60.0635L195.608 34.3329L199.014 34.3227C199.269 34.3227 199.487 33.9641 199.532 33.4763L199.991 28.2835C199.997 28.2261 200 28.1728 200 28.1093C200 27.8757 199.956 27.6421 199.878 27.4577C199.778 27.2281 199.632 27.0949 199.473 27.0949H196.117C196.281 25.2588 196.878 18.488 196.878 18.488C196.882 18.4307 196.885 18.3733 196.885 18.3159C196.885 18.072 196.843 17.8384 196.762 17.6581C196.665 17.4224 196.514 17.2954 196.362 17.2954H193.411C193.157 17.2954 192.938 17.6519 192.894 18.1397C192.894 18.1397 192.238 25.7076 192.116 27.0949C191.849 27.1113 191.575 27.1216 191.575 27.1216L191.114 27.1277L190.625 27.1113C190.438 27.1031 190.271 27.2896 190.173 27.5827C190.079 27.304 189.919 27.1216 189.74 27.1216L187.04 27.1113H186.25C186.103 27.1113 185.964 27.2322 185.862 27.4392C185.862 27.4392 183.146 33.4927 181.704 36.5318C182.125 31.716 183.289 18.5044 183.289 18.5044C183.293 18.443 183.296 18.3876 183.296 18.3261C183.296 18.0884 183.251 17.8548 183.17 17.6745C183.073 17.4388 182.925 17.3077 182.771 17.3077L179.833 17.2954C179.574 17.2913 179.352 17.6499 179.311 18.1376C179.243 18.9266 178.938 22.4411 178.529 27.1277L178.516 27.0867C178.413 26.8511 178.262 26.7281 178.102 26.7384C176.852 26.8101 175.722 27.806 174.737 29.0417Z" fill="black"/>
<path d="M112.308 36C112.308 39.046 109.897 41.5152 106.923 41.5152C103.949 41.5152 101.538 39.046 101.538 36C101.538 32.9541 103.949 30.4849 106.923 30.4849C109.897 30.4849 112.308 32.9541 112.308 36Z" fill="black"/>
</svg>
