<svg width="200" height="72" viewBox="0 0 200 72" fill="none" xmlns="http://www.w3.org/2000/svg">
<path fill-rule="evenodd" clip-rule="evenodd" d="M18.2922 22.3602V10.9946H41.1172L47.3497 41.3986L53.6616 10.9946H60.6229L50.5062 60.011H44.2737L36.4228 22.3602H30.514V60.011H23.797V22.3602H18.2922Z" fill="black"/>
<path fill-rule="evenodd" clip-rule="evenodd" d="M7.04171 33.4425V20.7989C14.57 19.9452 14.4082 34.1518 7.04171 33.4425ZM13.1134 60.011H20.8025L14.3267 40.4059C22.3395 35.5741 20.1541 10.7094 11.2517 10.9946H0V60.011H7.04171V41.8264L13.1134 60.011ZM140.266 10.9927H148.199L155.726 60.011H150.14L148.845 51.3456H139.458L138.161 60.011H132.739L140.267 10.9946L140.266 10.9927ZM147.47 42.3931H140.833L144.152 20.6564L147.47 42.3931Z" fill="black"/>
<path fill-rule="evenodd" clip-rule="evenodd" d="M166.086 42.9616V32.4497H178.469V49.4973C176.527 53.9031 175.233 57.3126 172.641 59.4442C170.942 60.8629 168.19 62 165.681 62C162.606 62 160.096 61.0055 158.152 59.0183C156.211 56.8848 154.998 54.1865 153.944 50.2066C152.893 46.0877 152.65 41.3985 152.65 36.1408C152.65 30.6015 153.055 25.6289 154.268 21.6508C155.401 17.5302 157.102 14.5466 159.368 12.4132C161.148 10.7093 163.01 10 166.004 10C168.918 10 171.023 10.426 172.48 11.4205C173.937 12.4132 175.07 13.9781 176.041 16.1097C176.931 18.2413 177.659 20.9397 178.146 24.2084L171.346 26.9068C171.023 24.9177 170.537 23.4973 169.728 22.5009C168.999 21.5101 168.028 20.7989 166.895 20.5137C164.549 19.9452 162.687 22.2176 161.635 24.4918C160.582 26.9049 160.096 30.5996 160.096 35.8592C160.096 41.2578 160.582 45.9451 161.635 48.3601C162.687 50.6362 164.224 51.9141 166.086 51.9141C166.976 51.9141 167.866 51.6289 168.675 51.0585C169.484 50.6362 170.376 49.7824 171.428 48.5027V42.9634H166.086V42.9616ZM188.425 22.0768H184.782V49.0713H188.425C195.223 49.0713 195.385 22.0768 188.425 22.0768ZM187.373 10.9945H178.469V60.1536H187.373C204.047 60.1536 204.37 10.9945 187.373 10.9945Z" fill="black"/>
<path fill-rule="evenodd" clip-rule="evenodd" d="M53.6627 60.011H137.433V10.9927H53.6606V60.011H53.6627ZM55.2812 57.4515H135.895V13.6947H55.2822V57.4552L55.2812 57.4515Z" fill="black"/>
<path fill-rule="evenodd" clip-rule="evenodd" d="M73.7355 48.0786H59.6521V22.7861H73.3314V27.7586H63.457V32.8738H72.6016V36.4259H63.457V43.8153H73.7355V48.0786ZM111.938 48.0786H107.647L107.568 41.2577C107.568 37.7056 105.059 37.8464 103.439 37.8464H100.768V48.0786H96.3173V22.7842H106.354C112.91 22.7842 114.448 32.1627 109.59 35.574C110.805 36.2815 111.856 38.415 111.856 41.1133L111.938 48.0767V48.0786ZM100.607 34.0091H104.816C105.95 34.0091 106.839 33.7239 107.326 33.298C107.81 32.7312 108.134 31.8775 108.134 30.7404C108.134 28.6106 107.081 27.4735 105.059 27.4735H100.607V34.0091ZM123.512 22.3601C124.807 22.3601 126.021 22.6453 127.074 23.3546C128.207 23.925 129.178 24.7751 129.987 25.914C130.797 27.0475 131.364 28.4698 131.848 30.0329C132.254 31.7367 132.496 33.4424 132.496 35.4332C132.496 37.2797 132.335 39.1261 131.848 40.6892C131.444 42.2541 130.797 43.6727 129.987 44.8098C129.178 45.9451 128.207 46.9396 127.155 47.51C126.021 48.0768 124.808 48.5027 123.512 48.5027C122.217 48.5027 120.923 48.0786 119.87 47.51C118.737 46.9396 117.766 45.9451 117.038 44.8098C116.228 43.6727 115.58 42.393 115.177 40.6892C114.69 39.1261 114.447 37.4204 114.447 35.4332C114.447 33.4424 114.69 31.5941 115.177 30.0329C115.58 28.4698 116.228 27.0493 117.038 25.914C117.848 24.7751 118.819 23.925 119.87 23.3546C121.004 22.6453 122.217 22.3601 123.512 22.3601ZM123.512 43.9561C124.241 43.9561 124.97 43.8153 125.697 43.3894C126.345 42.9616 126.912 42.393 127.397 41.6837C127.883 40.9744 128.206 40.1206 128.53 38.9853C128.773 37.9908 128.935 36.7111 128.935 35.4332C128.935 34.0109 128.773 32.8738 128.53 31.7367C128.206 30.7422 127.883 29.8903 127.397 29.181C126.912 28.468 126.345 27.9012 125.697 27.4753C124.97 27.0493 124.321 26.9067 123.512 26.9067C122.783 26.9067 122.055 27.0493 121.328 27.4735C120.68 27.9012 120.113 28.4698 119.628 29.181C119.142 29.8903 118.737 30.7422 118.494 31.8793C118.252 32.8738 118.09 34.0109 118.09 35.4332C118.09 36.7111 118.252 37.9908 118.494 38.9853C118.737 40.1206 119.141 40.9744 119.628 41.6837C120.113 42.393 120.679 42.9634 121.328 43.3894C121.975 43.8153 122.703 43.9561 123.512 43.9561ZM77.8641 22.7861H81.5061V40.6892C81.6669 45.6618 88.79 45.5192 88.6271 40.6892V22.7842H92.5938L92.5124 41.1133C92.5938 50.4917 77.9434 50.4917 77.863 41.1133L77.8641 22.7861Z" fill="black"/>
</svg>
