<svg width="150" height="44" viewBox="0 0 150 44" fill="none" xmlns="http://www.w3.org/2000/svg">
<rect x="0.5" y="0.5" width="149" height="43" rx="4.5" fill="#222222" stroke="#A6A6A6"/>
<path d="M61.87 32.614C61.942 32.77 61.978 32.926 61.978 33.082C61.978 33.358 61.864 33.592 61.636 33.784C61.42 33.976 61.168 34.072 60.88 34.072C60.688 34.072 60.508 34.024 60.34 33.928C60.172 33.82 60.04 33.658 59.944 33.442L58.864 31.03H52.528L51.448 33.442C51.352 33.658 51.22 33.82 51.052 33.928C50.884 34.024 50.698 34.072 50.494 34.072C50.218 34.072 49.966 33.976 49.738 33.784C49.51 33.592 49.396 33.358 49.396 33.082C49.396 32.926 49.432 32.77 49.504 32.614L54.472 21.94C54.58 21.7 54.742 21.52 54.958 21.4C55.186 21.268 55.426 21.202 55.678 21.202C55.93 21.202 56.164 21.268 56.38 21.4C56.608 21.52 56.776 21.7 56.884 21.94L61.87 32.614ZM53.32 29.23H58.072L55.696 23.884L53.32 29.23ZM68.5874 24.982C69.3434 24.982 70.0154 25.174 70.6034 25.558C71.2034 25.942 71.6654 26.488 71.9894 27.196C72.3254 27.892 72.4934 28.696 72.4934 29.608C72.4934 30.52 72.3254 31.318 71.9894 32.002C71.6654 32.686 71.2094 33.214 70.6214 33.586C70.0334 33.958 69.3554 34.144 68.5874 34.144C67.9634 34.144 67.4054 34.012 66.9134 33.748C66.4214 33.484 66.0434 33.118 65.7794 32.65V36.322C65.7794 36.634 65.6774 36.88 65.4734 37.06C65.2694 37.24 64.9994 37.33 64.6634 37.33C64.3274 37.33 64.0514 37.234 63.8354 37.042C63.6314 36.85 63.5294 36.598 63.5294 36.286V26.08C63.5294 25.756 63.6254 25.498 63.8174 25.306C64.0214 25.114 64.2914 25.018 64.6274 25.018C64.9634 25.018 65.2334 25.114 65.4374 25.306C65.6414 25.498 65.7434 25.756 65.7434 26.08V26.53C66.0074 26.038 66.3854 25.66 66.8774 25.396C67.3814 25.12 67.9514 24.982 68.5874 24.982ZM67.9934 32.398C68.7014 32.398 69.2534 32.158 69.6494 31.678C70.0454 31.186 70.2434 30.496 70.2434 29.608C70.2434 28.696 70.0454 27.988 69.6494 27.484C69.2534 26.98 68.7014 26.728 67.9934 26.728C67.2734 26.728 66.7154 26.974 66.3194 27.466C65.9354 27.958 65.7434 28.66 65.7434 29.572C65.7434 30.472 65.9354 31.168 66.3194 31.66C66.7154 32.152 67.2734 32.398 67.9934 32.398ZM79.3979 24.982C80.1539 24.982 80.8259 25.174 81.4139 25.558C82.0139 25.942 82.4759 26.488 82.7999 27.196C83.1359 27.892 83.3039 28.696 83.3039 29.608C83.3039 30.52 83.1359 31.318 82.7999 32.002C82.4759 32.686 82.0199 33.214 81.4319 33.586C80.8439 33.958 80.1659 34.144 79.3979 34.144C78.7739 34.144 78.2159 34.012 77.7239 33.748C77.2319 33.484 76.8539 33.118 76.5899 32.65V36.322C76.5899 36.634 76.4879 36.88 76.2839 37.06C76.0799 37.24 75.8099 37.33 75.4739 37.33C75.1379 37.33 74.8619 37.234 74.6459 37.042C74.4419 36.85 74.3399 36.598 74.3399 36.286V26.08C74.3399 25.756 74.4359 25.498 74.6279 25.306C74.8319 25.114 75.1019 25.018 75.4379 25.018C75.7739 25.018 76.0439 25.114 76.2479 25.306C76.4519 25.498 76.5539 25.756 76.5539 26.08V26.53C76.8179 26.038 77.1959 25.66 77.6879 25.396C78.1919 25.12 78.7619 24.982 79.3979 24.982ZM78.8039 32.398C79.5119 32.398 80.0639 32.158 80.4599 31.678C80.8559 31.186 81.0539 30.496 81.0539 29.608C81.0539 28.696 80.8559 27.988 80.4599 27.484C80.0639 26.98 79.5119 26.728 78.8039 26.728C78.0839 26.728 77.5259 26.974 77.1299 27.466C76.7459 27.958 76.5539 28.66 76.5539 29.572C76.5539 30.472 76.7459 31.168 77.1299 31.66C77.5259 32.152 78.0839 32.398 78.8039 32.398ZM94.6272 34.162C93.7032 34.162 92.8272 34.042 91.9992 33.802C91.1832 33.55 90.5172 33.214 90.0012 32.794C89.7252 32.59 89.5872 32.302 89.5872 31.93C89.5872 31.678 89.6592 31.462 89.8032 31.282C89.9592 31.09 90.1392 30.994 90.3432 30.994C90.5592 30.994 90.8052 31.078 91.0812 31.246C91.5972 31.618 92.1372 31.888 92.7012 32.056C93.2652 32.224 93.8892 32.308 94.5732 32.308C95.4492 32.308 96.1212 32.158 96.5892 31.858C97.0572 31.546 97.2912 31.096 97.2912 30.508C97.2912 30.052 97.0692 29.704 96.6252 29.464C96.1932 29.212 95.4672 28.972 94.4472 28.744C93.3912 28.516 92.5332 28.252 91.8732 27.952C91.2132 27.652 90.7152 27.268 90.3792 26.8C90.0432 26.332 89.8752 25.738 89.8752 25.018C89.8752 24.274 90.0852 23.608 90.5052 23.02C90.9252 22.432 91.5072 21.976 92.2512 21.652C93.0072 21.316 93.8532 21.148 94.7892 21.148C96.5052 21.148 97.9032 21.604 98.9832 22.516C99.1392 22.648 99.2472 22.78 99.3072 22.912C99.3792 23.032 99.4152 23.188 99.4152 23.38C99.4152 23.632 99.3372 23.854 99.1812 24.046C99.0372 24.226 98.8632 24.316 98.6592 24.316C98.5392 24.316 98.4252 24.298 98.3172 24.262C98.2212 24.226 98.0892 24.16 97.9212 24.064C97.4292 23.704 96.9492 23.44 96.4812 23.272C96.0252 23.092 95.4612 23.002 94.7892 23.002C93.9732 23.002 93.3252 23.17 92.8452 23.506C92.3772 23.83 92.1432 24.286 92.1432 24.874C92.1432 25.366 92.3532 25.744 92.7732 26.008C93.1932 26.272 93.9072 26.518 94.9152 26.746C95.9832 26.986 96.8472 27.256 97.5072 27.556C98.1792 27.844 98.6892 28.216 99.0372 28.672C99.3972 29.128 99.5772 29.698 99.5772 30.382C99.5772 31.126 99.3672 31.786 98.9472 32.362C98.5392 32.926 97.9572 33.37 97.2012 33.694C96.4572 34.006 95.5992 34.162 94.6272 34.162ZM105.965 32.434C106.565 32.47 106.865 32.74 106.865 33.244C106.865 33.532 106.745 33.754 106.505 33.91C106.277 34.054 105.947 34.114 105.515 34.09L105.029 34.054C103.013 33.91 102.005 32.83 102.005 30.814V26.89H101.105C100.781 26.89 100.529 26.818 100.349 26.674C100.181 26.53 100.097 26.32 100.097 26.044C100.097 25.768 100.181 25.558 100.349 25.414C100.529 25.27 100.781 25.198 101.105 25.198H102.005V23.542C102.005 23.218 102.107 22.96 102.311 22.768C102.515 22.576 102.791 22.48 103.139 22.48C103.475 22.48 103.745 22.576 103.949 22.768C104.153 22.96 104.255 23.218 104.255 23.542V25.198H105.785C106.109 25.198 106.355 25.27 106.523 25.414C106.703 25.558 106.793 25.768 106.793 26.044C106.793 26.32 106.703 26.53 106.523 26.674C106.355 26.818 106.109 26.89 105.785 26.89H104.255V30.976C104.255 31.864 104.663 32.338 105.479 32.398L105.965 32.434ZM112.051 34.144C111.151 34.144 110.359 33.958 109.675 33.586C109.003 33.214 108.481 32.68 108.109 31.984C107.737 31.288 107.551 30.478 107.551 29.554C107.551 28.63 107.737 27.826 108.109 27.142C108.481 26.446 109.003 25.912 109.675 25.54C110.359 25.168 111.151 24.982 112.051 24.982C112.951 24.982 113.737 25.168 114.409 25.54C115.093 25.912 115.615 26.446 115.975 27.142C116.347 27.826 116.533 28.63 116.533 29.554C116.533 30.478 116.347 31.288 115.975 31.984C115.615 32.68 115.093 33.214 114.409 33.586C113.737 33.958 112.951 34.144 112.051 34.144ZM112.033 32.398C112.765 32.398 113.323 32.158 113.707 31.678C114.091 31.198 114.283 30.49 114.283 29.554C114.283 28.63 114.091 27.928 113.707 27.448C113.323 26.956 112.771 26.71 112.051 26.71C111.331 26.71 110.773 26.956 110.377 27.448C109.993 27.928 109.801 28.63 109.801 29.554C109.801 30.49 109.993 31.198 110.377 31.678C110.761 32.158 111.313 32.398 112.033 32.398ZM123.305 25.018C123.617 24.994 123.863 25.06 124.043 25.216C124.223 25.372 124.313 25.606 124.313 25.918C124.313 26.242 124.235 26.482 124.079 26.638C123.923 26.794 123.641 26.896 123.233 26.944L122.693 26.998C121.985 27.07 121.463 27.31 121.127 27.718C120.803 28.126 120.641 28.636 120.641 29.248V33.028C120.641 33.376 120.533 33.646 120.317 33.838C120.101 34.018 119.831 34.108 119.507 34.108C119.183 34.108 118.913 34.018 118.697 33.838C118.493 33.646 118.391 33.376 118.391 33.028V26.062C118.391 25.726 118.493 25.468 118.697 25.288C118.913 25.108 119.177 25.018 119.489 25.018C119.801 25.018 120.053 25.108 120.245 25.288C120.437 25.456 120.533 25.702 120.533 26.026V26.746C120.761 26.218 121.097 25.81 121.541 25.522C121.997 25.234 122.501 25.072 123.053 25.036L123.305 25.018ZM132.072 31.588C132.276 31.588 132.438 31.666 132.558 31.822C132.69 31.978 132.756 32.188 132.756 32.452C132.756 32.824 132.534 33.136 132.09 33.388C131.682 33.616 131.22 33.802 130.704 33.946C130.188 34.078 129.696 34.144 129.228 34.144C127.812 34.144 126.69 33.736 125.862 32.92C125.034 32.104 124.62 30.988 124.62 29.572C124.62 28.672 124.8 27.874 125.16 27.178C125.52 26.482 126.024 25.942 126.672 25.558C127.332 25.174 128.076 24.982 128.904 24.982C129.696 24.982 130.386 25.156 130.974 25.504C131.562 25.852 132.018 26.344 132.342 26.98C132.666 27.616 132.828 28.366 132.828 29.23C132.828 29.746 132.6 30.004 132.144 30.004H126.834C126.906 30.832 127.14 31.444 127.536 31.84C127.932 32.224 128.508 32.416 129.264 32.416C129.648 32.416 129.984 32.368 130.272 32.272C130.572 32.176 130.908 32.044 131.28 31.876C131.64 31.684 131.904 31.588 132.072 31.588ZM128.958 26.566C128.346 26.566 127.854 26.758 127.482 27.142C127.122 27.526 126.906 28.078 126.834 28.798H130.902C130.878 28.066 130.698 27.514 130.362 27.142C130.026 26.758 129.558 26.566 128.958 26.566Z" fill="white"/>
<path d="M50.38 16C50.1867 16 50.0333 15.9467 49.92 15.84C49.8133 15.7333 49.76 15.5833 49.76 15.39V9.56C49.76 9.36667 49.8133 9.21667 49.92 9.11C50.0333 9.00333 50.1867 8.95 50.38 8.95H52.36C53.5133 8.95 54.4067 9.26 55.04 9.88C55.68 10.4933 56 11.3567 56 12.47C56 13.59 55.68 14.46 55.04 15.08C54.4067 15.6933 53.5133 16 52.36 16H50.38ZM52.28 14.95C53.9 14.95 54.71 14.1233 54.71 12.47C54.71 10.8233 53.9 10 52.28 10H51.05V14.95H52.28ZM59.4191 16.08C58.9191 16.08 58.4791 15.9767 58.0991 15.77C57.7257 15.5633 57.4357 15.2667 57.2291 14.88C57.0224 14.4933 56.9191 14.0433 56.9191 13.53C56.9191 13.0167 57.0224 12.57 57.2291 12.19C57.4357 11.8033 57.7257 11.5067 58.0991 11.3C58.4791 11.0933 58.9191 10.99 59.4191 10.99C59.9191 10.99 60.3557 11.0933 60.7291 11.3C61.1091 11.5067 61.3991 11.8033 61.5991 12.19C61.8057 12.57 61.9091 13.0167 61.9091 13.53C61.9091 14.0433 61.8057 14.4933 61.5991 14.88C61.3991 15.2667 61.1091 15.5633 60.7291 15.77C60.3557 15.9767 59.9191 16.08 59.4191 16.08ZM59.4091 15.11C59.8157 15.11 60.1257 14.9767 60.3391 14.71C60.5524 14.4433 60.6591 14.05 60.6591 13.53C60.6591 13.0167 60.5524 12.6267 60.3391 12.36C60.1257 12.0867 59.8191 11.95 59.4191 11.95C59.0191 11.95 58.7091 12.0867 58.4891 12.36C58.2757 12.6267 58.1691 13.0167 58.1691 13.53C58.1691 14.05 58.2757 14.4433 58.4891 14.71C58.7024 14.9767 59.0091 15.11 59.4091 15.11ZM69.4729 11.38C69.5196 11.26 69.5862 11.17 69.6729 11.11C69.7662 11.05 69.8662 11.02 69.9729 11.02C70.1262 11.02 70.2629 11.0733 70.3829 11.18C70.5096 11.28 70.5729 11.4067 70.5729 11.56C70.5729 11.6467 70.5562 11.7233 70.5229 11.79L68.8729 15.66C68.8196 15.7867 68.7362 15.8833 68.6229 15.95C68.5162 16.0167 68.3962 16.05 68.2629 16.05C68.1362 16.05 68.0162 16.0167 67.9029 15.95C67.7962 15.8833 67.7162 15.7867 67.6629 15.66L66.4729 12.8L65.3229 15.66C65.2696 15.7867 65.1862 15.8833 65.0729 15.95C64.9662 16.0167 64.8462 16.05 64.7129 16.05C64.5862 16.05 64.4662 16.0167 64.3529 15.95C64.2396 15.8833 64.1562 15.7867 64.1029 15.66L62.4629 11.79C62.4296 11.7033 62.4129 11.63 62.4129 11.57C62.4129 11.4167 62.4796 11.2867 62.6129 11.18C62.7462 11.0667 62.8929 11.01 63.0529 11.01C63.1662 11.01 63.2696 11.04 63.3629 11.1C63.4562 11.16 63.5262 11.25 63.5729 11.37L64.7529 14.42L65.9629 11.4C66.0162 11.2733 66.0929 11.18 66.1929 11.12C66.2929 11.0533 66.4029 11.02 66.5229 11.02C66.6429 11.02 66.7529 11.0533 66.8529 11.12C66.9529 11.18 67.0296 11.2733 67.0829 11.4L68.3029 14.43L69.4729 11.38ZM74.2673 10.99C74.854 10.99 75.2907 11.1567 75.5773 11.49C75.864 11.8233 76.0073 12.3267 76.0073 13V15.46C76.0073 15.6467 75.9507 15.7933 75.8373 15.9C75.7307 16.0067 75.5807 16.06 75.3873 16.06C75.194 16.06 75.0407 16.0067 74.9273 15.9C74.814 15.7933 74.7573 15.6467 74.7573 15.46V13.07C74.7573 12.69 74.684 12.4133 74.5373 12.24C74.3973 12.0667 74.174 11.98 73.8673 11.98C73.5073 11.98 73.2173 12.0933 72.9973 12.32C72.784 12.5467 72.6773 12.85 72.6773 13.23V15.46C72.6773 15.6467 72.6207 15.7933 72.5073 15.9C72.394 16.0067 72.2407 16.06 72.0473 16.06C71.854 16.06 71.7007 16.0067 71.5873 15.9C71.4807 15.7933 71.4273 15.6467 71.4273 15.46V11.59C71.4273 11.4167 71.484 11.2767 71.5973 11.17C71.7107 11.0633 71.864 11.01 72.0573 11.01C72.2307 11.01 72.3707 11.0633 72.4773 11.17C72.5907 11.27 72.6473 11.4033 72.6473 11.57V11.84C72.814 11.5667 73.0373 11.3567 73.3173 11.21C73.5973 11.0633 73.914 10.99 74.2673 10.99ZM77.897 16.06C77.717 16.06 77.567 16.01 77.447 15.91C77.3336 15.8033 77.277 15.6533 77.277 15.46V9.49C77.277 9.29667 77.3336 9.15 77.447 9.05C77.567 8.95 77.717 8.9 77.897 8.9C78.077 8.9 78.227 8.95 78.347 9.05C78.467 9.15 78.527 9.29667 78.527 9.49V15.46C78.527 15.6533 78.467 15.8033 78.347 15.91C78.227 16.01 78.077 16.06 77.897 16.06ZM82.046 16.08C81.546 16.08 81.106 15.9767 80.726 15.77C80.3527 15.5633 80.0627 15.2667 79.856 14.88C79.6493 14.4933 79.546 14.0433 79.546 13.53C79.546 13.0167 79.6493 12.57 79.856 12.19C80.0627 11.8033 80.3527 11.5067 80.726 11.3C81.106 11.0933 81.546 10.99 82.046 10.99C82.546 10.99 82.9827 11.0933 83.356 11.3C83.736 11.5067 84.026 11.8033 84.226 12.19C84.4327 12.57 84.536 13.0167 84.536 13.53C84.536 14.0433 84.4327 14.4933 84.226 14.88C84.026 15.2667 83.736 15.5633 83.356 15.77C82.9827 15.9767 82.546 16.08 82.046 16.08ZM82.036 15.11C82.4427 15.11 82.7527 14.9767 82.966 14.71C83.1793 14.4433 83.286 14.05 83.286 13.53C83.286 13.0167 83.1793 12.6267 82.966 12.36C82.7527 12.0867 82.446 11.95 82.046 11.95C81.646 11.95 81.336 12.0867 81.116 12.36C80.9027 12.6267 80.796 13.0167 80.796 13.53C80.796 14.05 80.9027 14.4433 81.116 14.71C81.3293 14.9767 81.636 15.11 82.036 15.11ZM87.688 10.99C88.368 10.99 88.8713 11.16 89.198 11.5C89.5313 11.8333 89.698 12.3433 89.698 13.03V15.47C89.698 15.65 89.6446 15.7933 89.538 15.9C89.4313 16 89.2846 16.05 89.098 16.05C88.9246 16.05 88.7813 15.9967 88.668 15.89C88.5613 15.7833 88.508 15.6433 88.508 15.47V15.25C88.3946 15.51 88.2146 15.7133 87.968 15.86C87.728 16.0067 87.448 16.08 87.128 16.08C86.8013 16.08 86.5046 16.0133 86.238 15.88C85.9713 15.7467 85.7613 15.5633 85.608 15.33C85.4546 15.0967 85.378 14.8367 85.378 14.55C85.378 14.19 85.468 13.9067 85.648 13.7C85.8346 13.4933 86.1346 13.3433 86.548 13.25C86.9613 13.1567 87.5313 13.11 88.258 13.11H88.508V12.88C88.508 12.5533 88.438 12.3167 88.298 12.17C88.158 12.0167 87.9313 11.94 87.618 11.94C87.4246 11.94 87.228 11.97 87.028 12.03C86.828 12.0833 86.5913 12.1633 86.318 12.27C86.1446 12.3567 86.018 12.4 85.938 12.4C85.818 12.4 85.718 12.3567 85.638 12.27C85.5646 12.1833 85.528 12.07 85.528 11.93C85.528 11.8167 85.5546 11.72 85.608 11.64C85.668 11.5533 85.7646 11.4733 85.898 11.4C86.1313 11.2733 86.408 11.1733 86.728 11.1C87.0546 11.0267 87.3746 10.99 87.688 10.99ZM87.378 15.18C87.7113 15.18 87.9813 15.07 88.188 14.85C88.4013 14.6233 88.508 14.3333 88.508 13.98V13.77H88.328C87.8813 13.77 87.5346 13.79 87.288 13.83C87.0413 13.87 86.8646 13.94 86.758 14.04C86.6513 14.14 86.598 14.2767 86.598 14.45C86.598 14.6633 86.6713 14.84 86.818 14.98C86.9713 15.1133 87.158 15.18 87.378 15.18ZM95.0484 8.9C95.235 8.9 95.3884 8.95333 95.5084 9.06C95.6284 9.16667 95.6884 9.30667 95.6884 9.48V15.46C95.6884 15.64 95.6317 15.7833 95.5184 15.89C95.405 15.9967 95.255 16.05 95.0684 16.05C94.8817 16.05 94.7317 15.9967 94.6184 15.89C94.505 15.7833 94.4484 15.64 94.4484 15.46V15.21C94.3017 15.4833 94.0884 15.6967 93.8084 15.85C93.535 16.0033 93.2217 16.08 92.8684 16.08C92.4484 16.08 92.0717 15.9733 91.7384 15.76C91.4117 15.5467 91.155 15.2467 90.9684 14.86C90.7884 14.4667 90.6984 14.0167 90.6984 13.51C90.6984 13.0033 90.7884 12.56 90.9684 12.18C91.155 11.8 91.4117 11.5067 91.7384 11.3C92.065 11.0933 92.4417 10.99 92.8684 10.99C93.2217 10.99 93.535 11.0633 93.8084 11.21C94.0817 11.3567 94.2917 11.5633 94.4384 11.83V9.46C94.4384 9.29333 94.4917 9.16 94.5984 9.06C94.7117 8.95333 94.8617 8.9 95.0484 8.9ZM93.1984 15.11C93.5984 15.11 93.905 14.9733 94.1184 14.7C94.3384 14.4267 94.4484 14.0367 94.4484 13.53C94.4484 13.0233 94.3384 12.6367 94.1184 12.37C93.905 12.0967 93.6017 11.96 93.2084 11.96C92.8084 11.96 92.4984 12.0933 92.2784 12.36C92.0584 12.6267 91.9484 13.01 91.9484 13.51C91.9484 14.0167 92.0584 14.41 92.2784 14.69C92.4984 14.97 92.805 15.11 93.1984 15.11ZM101.919 16.08C101.419 16.08 100.979 15.9767 100.599 15.77C100.226 15.5633 99.9357 15.2667 99.7291 14.88C99.5224 14.4933 99.4191 14.0433 99.4191 13.53C99.4191 13.0167 99.5224 12.57 99.7291 12.19C99.9357 11.8033 100.226 11.5067 100.599 11.3C100.979 11.0933 101.419 10.99 101.919 10.99C102.419 10.99 102.856 11.0933 103.229 11.3C103.609 11.5067 103.899 11.8033 104.099 12.19C104.306 12.57 104.409 13.0167 104.409 13.53C104.409 14.0433 104.306 14.4933 104.099 14.88C103.899 15.2667 103.609 15.5633 103.229 15.77C102.856 15.9767 102.419 16.08 101.919 16.08ZM101.909 15.11C102.316 15.11 102.626 14.9767 102.839 14.71C103.052 14.4433 103.159 14.05 103.159 13.53C103.159 13.0167 103.052 12.6267 102.839 12.36C102.626 12.0867 102.319 11.95 101.919 11.95C101.519 11.95 101.209 12.0867 100.989 12.36C100.776 12.6267 100.669 13.0167 100.669 13.53C100.669 14.05 100.776 14.4433 100.989 14.71C101.202 14.9767 101.509 15.11 101.909 15.11ZM108.281 10.99C108.868 10.99 109.304 11.1567 109.591 11.49C109.878 11.8233 110.021 12.3267 110.021 13V15.46C110.021 15.6467 109.964 15.7933 109.851 15.9C109.744 16.0067 109.594 16.06 109.401 16.06C109.208 16.06 109.054 16.0067 108.941 15.9C108.828 15.7933 108.771 15.6467 108.771 15.46V13.07C108.771 12.69 108.698 12.4133 108.551 12.24C108.411 12.0667 108.188 11.98 107.881 11.98C107.521 11.98 107.231 12.0933 107.011 12.32C106.798 12.5467 106.691 12.85 106.691 13.23V15.46C106.691 15.6467 106.634 15.7933 106.521 15.9C106.408 16.0067 106.254 16.06 106.061 16.06C105.868 16.06 105.714 16.0067 105.601 15.9C105.494 15.7933 105.441 15.6467 105.441 15.46V11.59C105.441 11.4167 105.498 11.2767 105.611 11.17C105.724 11.0633 105.878 11.01 106.071 11.01C106.244 11.01 106.384 11.0633 106.491 11.17C106.604 11.27 106.661 11.4033 106.661 11.57V11.84C106.828 11.5667 107.051 11.3567 107.331 11.21C107.611 11.0633 107.928 10.99 108.281 10.99ZM116.545 15.13C116.879 15.15 117.045 15.3 117.045 15.58C117.045 15.74 116.979 15.8633 116.845 15.95C116.719 16.03 116.535 16.0633 116.295 16.05L116.025 16.03C114.905 15.95 114.345 15.35 114.345 14.23V12.05H113.845C113.665 12.05 113.525 12.01 113.425 11.93C113.332 11.85 113.285 11.7333 113.285 11.58C113.285 11.4267 113.332 11.31 113.425 11.23C113.525 11.15 113.665 11.11 113.845 11.11H114.345V10.19C114.345 10.01 114.402 9.86667 114.515 9.76C114.629 9.65333 114.782 9.6 114.975 9.6C115.162 9.6 115.312 9.65333 115.425 9.76C115.539 9.86667 115.595 10.01 115.595 10.19V11.11H116.445C116.625 11.11 116.762 11.15 116.855 11.23C116.955 11.31 117.005 11.4267 117.005 11.58C117.005 11.7333 116.955 11.85 116.855 11.93C116.762 12.01 116.625 12.05 116.445 12.05H115.595V14.32C115.595 14.8133 115.822 15.0767 116.275 15.11L116.545 15.13ZM120.557 10.99C121.704 10.99 122.277 11.66 122.277 13V15.46C122.277 15.6467 122.22 15.7933 122.107 15.9C122 16.0067 121.85 16.06 121.657 16.06C121.464 16.06 121.31 16.0067 121.197 15.9C121.084 15.7933 121.027 15.6467 121.027 15.46V13C121.027 12.6467 120.954 12.39 120.807 12.23C120.667 12.0633 120.444 11.98 120.137 11.98C119.777 11.98 119.487 12.0933 119.267 12.32C119.054 12.5467 118.947 12.85 118.947 13.23V15.46C118.947 15.6467 118.89 15.7933 118.777 15.9C118.664 16.0067 118.51 16.06 118.317 16.06C118.124 16.06 117.97 16.0067 117.857 15.9C117.75 15.7933 117.697 15.6467 117.697 15.46V9.48C117.697 9.30667 117.754 9.16667 117.867 9.06C117.987 8.95333 118.14 8.9 118.327 8.9C118.514 8.9 118.664 8.95 118.777 9.05C118.89 9.15 118.947 9.28667 118.947 9.46V11.79C119.114 11.53 119.334 11.3333 119.607 11.2C119.887 11.06 120.204 10.99 120.557 10.99ZM127.416 14.66C127.53 14.66 127.62 14.7033 127.686 14.79C127.76 14.8767 127.796 14.9933 127.796 15.14C127.796 15.3467 127.673 15.52 127.426 15.66C127.2 15.7867 126.943 15.89 126.656 15.97C126.37 16.0433 126.096 16.08 125.836 16.08C125.05 16.08 124.426 15.8533 123.966 15.4C123.506 14.9467 123.276 14.3267 123.276 13.54C123.276 13.04 123.376 12.5967 123.576 12.21C123.776 11.8233 124.056 11.5233 124.416 11.31C124.783 11.0967 125.196 10.99 125.656 10.99C126.096 10.99 126.48 11.0867 126.806 11.28C127.133 11.4733 127.386 11.7467 127.566 12.1C127.746 12.4533 127.836 12.87 127.836 13.35C127.836 13.6367 127.71 13.78 127.456 13.78H124.506C124.546 14.24 124.676 14.58 124.896 14.8C125.116 15.0133 125.436 15.12 125.856 15.12C126.07 15.12 126.256 15.0933 126.416 15.04C126.583 14.9867 126.77 14.9133 126.976 14.82C127.176 14.7133 127.323 14.66 127.416 14.66ZM125.686 11.87C125.346 11.87 125.073 11.9767 124.866 12.19C124.666 12.4033 124.546 12.71 124.506 13.11H126.766C126.753 12.7033 126.653 12.3967 126.466 12.19C126.28 11.9767 126.02 11.87 125.686 11.87Z" fill="white"/>
<path d="M35.0457 22.8903C35.0123 19.3528 38.0969 17.6319 38.2377 17.552C36.4907 15.1339 33.7822 14.8038 32.8309 14.7774C30.5568 14.55 28.3504 16.069 27.1925 16.069C26.0106 16.069 24.2265 14.7994 22.3036 14.8363C19.8285 14.8731 17.5146 16.2323 16.2447 18.344C13.6242 22.6498 15.5777 28.9768 18.088 32.4572C19.344 34.1615 20.8113 36.065 22.7324 35.9983C24.611 35.9245 25.3131 34.8613 27.5807 34.8613C29.8269 34.8613 30.4864 35.9983 32.4455 35.9553C34.4621 35.9245 35.7311 34.2431 36.9427 32.5231C38.3942 30.5695 38.9768 28.6458 39 28.5465C38.9528 28.5316 35.0836 27.1303 35.0447 22.8903H35.0457ZM31.3451 12.4884C32.3557 11.2882 33.0476 9.65682 32.855 8C31.3933 8.06146 29.5638 8.96055 28.5106 10.1336C27.5779 11.1688 26.7461 12.8634 26.96 14.4561C28.6033 14.572 30.2901 13.6694 31.3442 12.4884H31.3451Z" fill="white"/>
</svg>
